<svg xmlns="http://www.w3.org/2000/svg" width="26.356" height="20.246" viewBox="0 0 26.356 20.246">
  <path id="analytics" d="M1106.526,852.007l-2.125,4.984-5.713-13.535a1.72,1.72,0,0,0-3.036.035l-3.2,7.524h-3.3a1.613,1.613,0,0,0,0,3.226h4.4a1.572,1.572,0,0,0,1.474-.993l2.126-4.984,5.712,13.535a1.606,1.606,0,0,0,1.48,1.008,1.586,1.586,0,0,0,1.47-.994l3.22-7.573h3.248a1.61,1.61,0,0,0,1.61-1.6,1.505,1.505,0,0,0-1.4-1.619,1.317,1.317,0,0,0-.14,0H1108A1.6,1.6,0,0,0,1106.526,852.007Z" transform="translate(-1087.541 -842.561)"/>
</svg>
