<svg xmlns="http://www.w3.org/2000/svg" width="32.772" height="26.155" viewBox="0 0 32.772 26.155">
  <path id="brands" d="M1073.248,825.813l12.86,3.675a.94.94,0,0,0,.518,0l12.857-3.675a.952.952,0,0,0,.691-.913v-8.27l1.967-.773a.945.945,0,0,0,.559-1.2l-2.571-7.348a.95.95,0,0,0-.664-.6L1086.6,803.4a1.018,1.018,0,0,0-.265-.032l-.023,0a.987.987,0,0,0-.187.03l-12.858,3.307a.945.945,0,0,0-.666.6l-2.57,7.349a.944.944,0,0,0,.555,1.2l1.968.773V824.9A.95.95,0,0,0,1073.248,825.813Zm12.166,1.5-10.953-3.14v-6.787l8.252,3.25a.949.949,0,0,0,1.221-.5l1.193-2.652.287.061Zm12.854-3.14-10.951,3.14v-9.723l-.086-.191h.387v.127l1.177,2.614a.949.949,0,0,0,1.22.5l8.253-3.25Zm.5-14.933.024.059,1.8,5.116-10.431,4.106-2.5-5.562.155-.054,10.839-3.72Zm-12.4-3.937.037.009,10.118,2.6-10.155,3.471-.049-.016-10.1-3.463Zm-14.227,9.112,1.853-5.256.141.048,10.934,3.754-2.5,5.56Z" transform="translate(-1069.98 -803.369)"/>
</svg>
