<svg xmlns="http://www.w3.org/2000/svg" width="25.854" height="25.854" viewBox="0 0 25.854 25.854">
  <g id="cancelled" transform="translate(0 -0.498)">
    <path id="stopped" d="M19.05,21.589,4.763,7.3a10.425,10.425,0,0,0-2.041,6.123A10.235,10.235,0,0,0,12.927,23.63a10.068,10.068,0,0,0,6.123-2.041M6.8,5.261,21.091,19.548a10.068,10.068,0,0,0,2.041-6.123A10.235,10.235,0,0,0,12.927,3.219,10.425,10.425,0,0,0,6.8,5.261M12.927.5A12.927,12.927,0,1,1,0,13.425,12.9,12.9,0,0,1,12.927.5" transform="translate(0 0)" fill="#e21313" fill-rule="evenodd"/>
  </g>
</svg>
