<svg id="checkbox-tick" xmlns="http://www.w3.org/2000/svg" xmlns:xlink="http://www.w3.org/1999/xlink" width="15.3" height="11.236" viewBox="0 0 15.3 11.236">
  <defs>
    <clipPath id="clip-path">
      <path id="Path_91" data-name="Path 91" d="M1567.312,1040.485a1.017,1.017,0,0,0-1.437,0l-8.626,8.626-3.206-3.206a1.016,1.016,0,0,0-1.437,1.437l3.783,3.783a1.014,1.014,0,0,0,.718.3.766.766,0,0,1,.283,0,1.015,1.015,0,0,0,.718-.3l9.2-9.2a1.017,1.017,0,0,0,0-1.437" transform="translate(-1552.309 -1040.188)" fill="none" clip-rule="evenodd"/>
    </clipPath>
  </defs>
  <g id="Group_109" data-name="Group 109" clip-path="url(#clip-path)">
    <rect id="Rectangle_63" data-name="Rectangle 63" width="30.038" height="25.973" transform="translate(-7.369 -7.369)" fill="#fff"/>
  </g>
</svg>
