<svg xmlns="http://www.w3.org/2000/svg" width="28.08" height="23.326" viewBox="0 0 28.08 23.326">
  <g id="custom-caption" transform="translate(-738.153 -1023.981)">
    <g id="Group_432" data-name="Group 432" transform="translate(738.153 1023.981)">
      <path id="Path_486" data-name="Path 486" d="M762.138,1047.307H742.248a4.1,4.1,0,0,1-4.095-4.1v-15.133a4.1,4.1,0,0,1,4.095-4.1h19.891a4.1,4.1,0,0,1,4.095,4.1v15.133A4.1,4.1,0,0,1,762.138,1047.307Zm-19.891-20.852a1.626,1.626,0,0,0-1.622,1.624v15.133a1.623,1.623,0,0,0,1.622,1.622h19.891a1.623,1.623,0,0,0,1.622-1.622v-15.133a1.625,1.625,0,0,0-1.622-1.624Z" transform="translate(-738.153 -1023.981)" fill="#307ad7"/>
    </g>
    <g id="Group_435" data-name="Group 435" transform="translate(744.205 1031.168)">
      <g id="Group_433" data-name="Group 433">
        <path id="Path_487" data-name="Path 487" d="M757.3,1031.687H743.794a1.237,1.237,0,0,1,0-2.474H757.3a1.237,1.237,0,0,1,0,2.474Z" transform="translate(-742.559 -1029.213)" fill="#307ad7"/>
      </g>
      <g id="Group_434" data-name="Group 434" transform="translate(0 6.482)">
        <path id="Path_488" data-name="Path 488" d="M752.527,1036.4h-8.733a1.236,1.236,0,0,1,0-2.472h8.733a1.236,1.236,0,1,1,0,2.472Z" transform="translate(-742.559 -1033.932)" fill="#307ad7"/>
      </g>
    </g>
  </g>
</svg>
