<svg height="20.801" viewBox="0 0 27.286 20.801" width="27.286" xmlns="http://www.w3.org/2000/svg" xmlns:xlink="http://www.w3.org/1999/xlink">
    <clipPath id="a">
        <path clip-rule="evenodd" d="m1038.458 929.191 6.349-6.349h6.675l-8.8 8.8h-4.226zm19.769-6.349h3.939v2.449l-6.349 6.349h-6.389zm-.609-4.548v2.759h-14.612v-2.759h-1.789v2.759h-4.548v12.376h4.548v5.665h1.789v-5.665h14.612v5.665h1.789v-5.665h4.548v-12.377h-4.548v-2.759z" transform="translate(-1036.669 -918.293)" />
    </clipPath>
    <g transform="translate(-1036.669 -918.293)">
        <path d="m1038.458 929.191 6.349-6.349h6.675l-8.8 8.8h-4.226zm19.769-6.349h3.939v2.449l-6.349 6.349h-6.389zm-.609-4.548v2.759h-14.612v-2.759h-1.789v2.759h-4.548v12.376h4.548v5.665h1.789v-5.665h14.612v5.665h1.789v-5.665h4.548v-12.377h-4.548v-2.759z" fill="#fff" fill-rule="evenodd" />
        <g clip-path="url(#a)" transform="translate(1036.669 918.293)">
            <path d="m0 0h44.341v37.855h-44.341z" fill="#fff" transform="translate(-8.527 -8.526)" />
        </g>
    </g>
</svg>