<svg xmlns="http://www.w3.org/2000/svg" width="351.501" height="346.5" viewBox="0 0 351.501 346.5">
  <path id="EMI-icon-watermark" d="M3232.129-6845.5l-2.392-17.1a82.434,82.434,0,0,0,45.12-25.909l38.643,29.172v13.838Zm-85,0,21.4-28.354a82.321,82.321,0,0,0,50.272,12.748l2.182,15.606Zm-78.454,0a173.014,173.014,0,0,1-27.461-66.962l91.1-12.754a82.573,82.573,0,0,0,27.322,44.778l-26.37,34.938Zm-100.962-23.889c-2.227-7.021-4.106-14.219-5.71-21.489l54.634-35.438A191.126,191.126,0,0,0,3032.928-6866Zm313.9-27.876a82.4,82.4,0,0,0,14.177-50.8l17.714-2.471v77.347Zm-211.758-145.951,73.206,55.241a82.6,82.6,0,0,0-12.422,51.867l-91.12,12.755A172.813,172.813,0,0,1,3069.851-7043.216Zm198.139,37.523,45.51-60.285v104.294l-19.078,2.665A82.658,82.658,0,0,0,3267.99-7005.693ZM2962-6999.978c1.6-7.288,3.483-14.451,5.71-21.481l65.219-3.4a191.087,191.087,0,0,0-16.294,60.317Zm223.766,30.473L3044.4-7079.746a6.061,6.061,0,0,1-2.168-6.2,6.065,6.065,0,0,1,4.762-4.5l122.877-16.229a6.228,6.228,0,0,1,4.811,1.146,6.164,6.164,0,0,1,2.345,4.4l18.488,126.428a6.121,6.121,0,0,1-3.216,5.783,5.946,5.946,0,0,1-2.81.7A6.019,6.019,0,0,1,3185.765-6969.505Zm21.1-56.743-12.571-89.856a172.81,172.81,0,0,1,119.14,31.875l-54.2,71.81A82.41,82.41,0,0,0,3206.863-7026.249Zm20.813-111.118L3263.114-7192c7.288,1.622,14.458,3.491,21.489,5.7l3.4,65.212A191.608,191.608,0,0,0,3227.676-7137.366ZM3132.54-7186.3c7.023-2.21,14.209-4.079,21.481-5.7l35.44,54.634a191.486,191.486,0,0,0-60.317,16.278Z" transform="translate(-2961.999 7192)" fill="#e9e9ec"/>
</svg>
