<svg height="26.194" viewBox="0 0 25.69 26.194" width="25.69" xmlns="http://www.w3.org/2000/svg" xmlns:xlink="http://www.w3.org/1999/xlink">
    <clipPath id="a">
        <path clip-rule="evenodd" d="m1281.894 852.586a1.333 1.333 0 0 1 -1.334-1.336v-5.94h-4.56a1.335 1.335 0 0 1 -1.334-1.336v-16.248a1.334 1.334 0 0 1 1.334-1.334h23.019a1.335 1.335 0 0 1 1.336 1.334v16.248a1.337 1.337 0 0 1 -1.336 1.336h-9.3l-6.885 6.884a1.336 1.336 0 0 1 -.94.392zm-4.558-9.946h4.558a1.334 1.334 0 0 1 1.334 1.334v4.054l5-5a1.334 1.334 0 0 1 .944-.39h8.515v-13.577h-20.349z" transform="translate(-1274.666 -826.392)" />
    </clipPath>
    <clipPath id="b">
        <path d="m.114.14h26v26h-26z" />
    </clipPath>
    <g>
        <path d="m1281.894 852.586a1.333 1.333 0 0 1 -1.334-1.336v-5.94h-4.56a1.335 1.335 0 0 1 -1.334-1.336v-16.248a1.334 1.334 0 0 1 1.334-1.334h23.019a1.335 1.335 0 0 1 1.336 1.334v16.248a1.337 1.337 0 0 1 -1.336 1.336h-9.3l-6.885 6.884a1.336 1.336 0 0 1 -.94.392zm-4.558-9.946h4.558a1.334 1.334 0 0 1 1.334 1.334v4.054l5-5a1.334 1.334 0 0 1 .944-.39h8.515v-13.577h-20.349z" fill="#fff" fill-rule="evenodd" transform="translate(-1274.666 -826.392)" />
    </g>
</svg>