<svg xmlns="http://www.w3.org/2000/svg" xmlns:xlink="http://www.w3.org/1999/xlink" width="25.69" height="26.194" viewBox="0 0 25.69 26.194">
  <defs>
    <clipPath id="clip-path">
      <path id="Path_402" data-name="Path 402" d="M1281.894,852.586a1.333,1.333,0,0,1-1.334-1.336v-5.94H1276a1.335,1.335,0,0,1-1.334-1.336V827.726a1.334,1.334,0,0,1,1.334-1.334h23.019a1.335,1.335,0,0,1,1.336,1.334v16.248a1.337,1.337,0,0,1-1.336,1.336h-9.3l-6.885,6.884A1.336,1.336,0,0,1,1281.894,852.586Zm-4.558-9.946h4.558a1.334,1.334,0,0,1,1.334,1.334v4.054l5-5a1.334,1.334,0,0,1,.944-.39h8.515V829.061h-20.349Z" transform="translate(-1274.666 -826.392)" fill="#fff" clip-rule="evenodd"/>
    </clipPath>
    <clipPath id="clip-path-2">
      <rect id="Rectangle_135" data-name="Rectangle 135" width="26" height="26" transform="translate(0.114 0.14)" fill="#fff"/>
    </clipPath>
  </defs>
  <g id="feedback" transform="translate(-1274.666 -826.392)">
    <g id="Group_248" data-name="Group 248" transform="translate(1274.666 826.392)" style="isolation: isolate">
      <g id="Group_247" data-name="Group 247">
        <g id="Group_246" data-name="Group 246">
          <path id="Path_401" data-name="Path 401" d="M1281.894,852.586a1.333,1.333,0,0,1-1.334-1.336v-5.94H1276a1.335,1.335,0,0,1-1.334-1.336V827.726a1.334,1.334,0,0,1,1.334-1.334h23.019a1.335,1.335,0,0,1,1.336,1.334v16.248a1.337,1.337,0,0,1-1.336,1.336h-9.3l-6.885,6.884A1.336,1.336,0,0,1,1281.894,852.586Zm-4.558-9.946h4.558a1.334,1.334,0,0,1,1.334,1.334v4.054l5-5a1.334,1.334,0,0,1,.944-.39h8.515V829.061h-20.349Z" transform="translate(-1274.666 -826.392)" fill="#fff" fill-rule="evenodd"/>
          <g id="Group_245" data-name="Group 245" clip-path="url(#clip-path)">
            <g id="Group_244" data-name="Group 244" transform="translate(0.002 0.095)">
              <rect id="Rectangle_133" data-name="Rectangle 133" width="26" height="26" transform="translate(0.114 0.14)" fill="#fff"/>
              <g id="Group_243" data-name="Group 243" transform="translate(0 0)" clip-path="url(#clip-path-2)">
                <rect id="Rectangle_134" data-name="Rectangle 134" width="43.199" height="43.704" transform="translate(-8.757 -8.851)" fill="#fff"/>
              </g>
            </g>
          </g>
        </g>
      </g>
    </g>
  </g>
</svg>
