<svg id="logo-component-status" xmlns="http://www.w3.org/2000/svg" width="214.013" height="68.482" viewBox="0 0 214.013 68.482">
  <path id="Path_92" data-name="Path 92" d="M223.655,697.093a33.066,33.066,0,1,1,32.891,33.144A33.066,33.066,0,0,1,223.655,697.093Z" transform="translate(-222.54 -662.896)" fill="#fff"/>
  <path id="Path_93" data-name="Path 93" d="M230.862,701.005a29.9,29.9,0,1,1,29.747,29.975A29.905,29.905,0,0,1,230.862,701.005Z" transform="translate(-226.586 -666.868)" fill="#1a1818"/>
  <path id="Path_94" data-name="Path 94" d="M255.448,663.345h.025a32.376,32.376,0,0,1-.3,64.752h-.042a32.376,32.376,0,0,1,.316-64.752m0-1.865a34.241,34.241,0,0,0-.318,68.482h.044a34.26,34.26,0,0,0,24.366-58.4,33.692,33.692,0,0,0-24.066-10.078h-.026Z" transform="translate(-221.112 -661.48)" fill="#1a1818"/>
  <g id="Group_110" data-name="Group 110" transform="translate(6.756 7.407)">
    <path id="Path_95" data-name="Path 95" d="M314.162,723.359q0-.771-.037-1.531c-1.325.3-2.652.584-3.969.912a2.178,2.178,0,0,1-2.11-.57c-.316-.285-.592-.614-.912-.894a2.444,2.444,0,0,1-.746-2.623c.343-1.432.662-2.869.978-4.307a1.585,1.585,0,0,0-1.035-2.041c-1.093-.47-2.194-.92-3.3-1.367a1.661,1.661,0,0,0-2.382.761c-.745,1.172-1.5,2.338-2.205,3.537a2.4,2.4,0,0,1-2.432,1.364,7.567,7.567,0,0,0-1.107,0,2.226,2.226,0,0,1-2.179-1.2c-.753-1.234-1.525-2.458-2.3-3.679a1.7,1.7,0,0,0-2.455-.768c-1.05.427-2.093.87-3.136,1.311a1.671,1.671,0,0,0-1.133,2.229c.294,1.3.6,2.593.9,3.888a3.81,3.81,0,0,1-2.587,4.352,1.875,1.875,0,0,1-1,.032q-2.272-.542-4.552-1.047a1.675,1.675,0,0,0-2.221,1.159c-.45,1.071-.9,2.141-1.335,3.218a1.645,1.645,0,0,0,.74,2.322c1.218.779,2.437,1.559,3.679,2.3a2.313,2.313,0,0,1,1.256,2.319,10.4,10.4,0,0,0,0,1.192,2.2,2.2,0,0,1-1.156,2.116c-1.284.781-2.554,1.586-3.818,2.4A1.616,1.616,0,0,0,272.9,741c.453,1.13.914,2.258,1.393,3.378a1.6,1.6,0,0,0,2.044,1.047c1.353-.3,2.7-.621,4.058-.923a3.857,3.857,0,0,1,4.279,2.461,2.042,2.042,0,0,1,.067,1.167c-.363,1.485-.693,2.978-1.03,4.469a3.267,3.267,0,0,0-.081.62c.157,0,.311.012.468.012A29.907,29.907,0,0,0,314.162,723.359ZM284.138,733.81a11.412,11.412,0,1,1,11.43,11.38A11.378,11.378,0,0,1,284.138,733.81Z" transform="translate(-256.832 -696.527)" fill="#ffa800"/>
    <path id="Path_96" data-name="Path 96" d="M240,695.548a1.22,1.22,0,0,1-.192.67c-.5.764-.976,1.539-1.46,2.312a1.019,1.019,0,0,0,.208,1.521q.751.681,1.509,1.353a.981.981,0,0,0,1.487.043q1.057-.83,2.1-1.678a1.346,1.346,0,0,1,1.235-.279c.261.065.508.187.768.263A1.485,1.485,0,0,1,246.769,701c.168.846.369,1.685.568,2.523a.958.958,0,0,0,1.132.84c.607-.029,1.215-.067,1.821-.1,1.069-.061,1.27-.259,1.385-1.324.1-.905.2-1.81.279-2.47.259-.977.94-1.122,1.5-1.411a1.362,1.362,0,0,1,1.442.088c.769.489,1.543.971,2.317,1.453a.937.937,0,0,0,1.35-.186c.469-.51.925-1.031,1.384-1.549A1,1,0,0,0,260,697.3c-.544-.69-1.1-1.374-1.643-2.063a1.329,1.329,0,0,1-.225-1.38c.091-.237.177-.476.251-.719a1.366,1.366,0,0,1,1.1-1c.843-.179,1.683-.375,2.523-.57.754-.175.967-.466.928-1.256-.033-.658-.065-1.316-.1-1.973a1.013,1.013,0,0,0-1.057-1.11c-.889-.1-1.776-.215-2.667-.3a1.3,1.3,0,0,1-1.075-.736c-.122-.222-.212-.462-.337-.682a1.457,1.457,0,0,1,.1-1.623c.475-.738.937-1.484,1.4-2.231a.945.945,0,0,0-.181-1.353c-.522-.48-1.054-.95-1.586-1.418a.99.99,0,0,0-1.49-.041c-.65.513-1.307,1.019-1.937,1.557a1.434,1.434,0,0,1-1.637.289,4.5,4.5,0,0,0-.623-.218,1.327,1.327,0,0,1-.99-1.1c-.072-.336-.151-.669-.227-1a29.9,29.9,0,0,0-14.006,14.776c.521.058,1.042.116,1.563.177A2.3,2.3,0,0,1,240,695.548Zm2.287-7.508a6.8,6.8,0,1,1,4.192,8.654A6.784,6.784,0,0,1,242.288,688.039Z" transform="translate(-236.515 -678.367)" fill="#ffa800"/>
  </g>
  <g id="Group_114" data-name="Group 114" transform="translate(79.094 19.285)">
    <g id="Group_111" data-name="Group 111">
      <path id="Path_97" data-name="Path 97" d="M413.677,720.337v.459a5.626,5.626,0,0,1-.661,3.159c-.8,1.263-2.068,1.665-5.112,1.665-2.614,0-3.963-.316-4.94-1.149-1.12-.976-1.522-2.441-1.522-5.744,0-2.786.258-4.135,1.034-5.169.861-1.177,2.441-1.694,5.054-1.694,4.653,0,5.945,1.062,5.945,4.911h-3.159c0-1.924-.488-2.355-2.614-2.355-2.613,0-2.958.488-2.958,4.393,0,2.183.2,3.274.718,3.791.345.345,1.063.488,2.326.488,2.326,0,2.671-.373,2.671-2.757Z" transform="translate(-401.443 -709.05)" fill="#1a1818"/>
      <path id="Path_98" data-name="Path 98" d="M445.14,712.985c1.005.948,1.379,2.383,1.379,5.428,0,5.973-1.092,7.208-6.318,7.208-3.159,0-4.681-.488-5.485-1.809-.661-1.062-.861-2.3-.861-5.571,0-2.929.4-4.365,1.436-5.284.947-.833,2.154-1.091,5-1.091C443.015,711.865,444.25,712.152,445.14,712.985Zm-7.984,5.629c0,3.935.374,4.48,2.987,4.48,2.7,0,3.073-.574,3.073-4.623,0-3.533-.4-4.078-3.044-4.078C437.558,714.392,437.156,714.937,437.156,718.613Z" transform="translate(-419.638 -709.05)" fill="#1a1818"/>
      <path id="Path_99" data-name="Path 99" d="M470.819,712.037l-.086,2.068h.057c.689-1.58,1.9-2.24,4.078-2.24,2.412,0,3.79.861,4.049,2.5h.057c.661-1.752,1.953-2.5,4.251-2.5,1.924,0,3.331.574,3.992,1.637a5.882,5.882,0,0,1,.6,3.073v8.874h-3.245v-8.184a5.206,5.206,0,0,0-.287-1.924c-.259-.546-.919-.833-1.982-.833-1.35,0-2.384.431-2.729,1.149a4.55,4.55,0,0,0-.287,1.953v7.84h-3.245v-8.3a4.9,4.9,0,0,0-.23-1.838c-.258-.517-.976-.8-2.01-.8-2.125,0-2.986.89-2.986,3.159v7.782h-3.245V712.037Z" transform="translate(-438.569 -709.05)" fill="#1a1818"/>
      <path id="Path_100" data-name="Path 100" d="M523.725,712.037l-.115,1.982.057.029c.89-1.695,1.9-2.182,4.336-2.182a5.253,5.253,0,0,1,3.79,1.177c.976,1.005,1.35,2.5,1.35,5.571,0,5.37-1.206,7.007-5.14,7.007-2.412,0-3.418-.517-4.136-2.125h-.057v4.363H520.48V712.037Zm.115,6.605c0,3.561.574,4.393,3.044,4.393,2.441,0,2.958-.747,2.958-4.193,0-3.762-.46-4.451-3.015-4.451C524.357,714.392,523.84,715.139,523.84,718.642Z" transform="translate(-468.27 -709.05)" fill="#1a1818"/>
      <path id="Path_101" data-name="Path 101" d="M564.309,712.985c1.005.948,1.378,2.383,1.378,5.428,0,5.973-1.091,7.208-6.318,7.208-3.159,0-4.681-.488-5.485-1.809-.66-1.062-.861-2.3-.861-5.571,0-2.929.4-4.365,1.436-5.284.948-.833,2.154-1.091,5-1.091C562.184,711.865,563.419,712.152,564.309,712.985Zm-7.984,5.629c0,3.935.373,4.48,2.987,4.48,2.7,0,3.073-.574,3.073-4.623,0-3.533-.4-4.078-3.044-4.078C556.727,714.392,556.325,714.937,556.325,718.613Z" transform="translate(-486.539 -709.05)" fill="#1a1818"/>
      <path id="Path_102" data-name="Path 102" d="M590.016,712.037l-.115,2.269h.058c.632-1.694,1.924-2.441,4.164-2.441,2.154,0,3.59.6,4.25,1.751a5.087,5.087,0,0,1,.46,2.7v9.132h-3.245v-8.069c0-2.412-.4-2.9-2.384-2.9-2.182,0-3.159.919-3.159,3.015v7.954h-3.3V712.037Z" transform="translate(-505.469 -709.05)" fill="#1a1818"/>
      <path id="Path_103" data-name="Path 103" d="M631.371,721.17c0,3.417-1.35,4.451-5.772,4.451-5.37,0-6.576-1.264-6.576-6.95,0-2.929.316-4.365,1.177-5.341.948-1.034,2.441-1.464,5.141-1.464,3.5,0,5,.775,5.687,2.9.287.948.344,1.608.344,4.566H622.3v.517c0,2.728.574,3.36,3.044,3.36,2.355,0,2.786-.316,2.815-2.039Zm-3.188-4.365c-.057-2.125-.488-2.527-2.9-2.527-1.752,0-2.383.229-2.728,1.062a5.435,5.435,0,0,0-.23,1.982h5.858Z" transform="translate(-523.591 -709.05)" fill="#1a1818"/>
      <path id="Path_104" data-name="Path 104" d="M656.606,712.037l-.115,2.269h.058c.632-1.694,1.924-2.441,4.164-2.441,2.154,0,3.59.6,4.25,1.751a5.087,5.087,0,0,1,.46,2.7v9.132h-3.245v-8.069c0-2.412-.4-2.9-2.384-2.9-2.182,0-3.159.919-3.159,3.015v7.954h-3.3V712.037Z" transform="translate(-542.852 -709.05)" fill="#1a1818"/>
      <path id="Path_105" data-name="Path 105" d="M694.87,710.876h-5.112v6.72c0,1.551.259,1.924,1.378,1.924,1.264,0,1.579-.46,1.579-2.3a4.833,4.833,0,0,0-.028-.546h2.728v.775c0,1.867-.172,2.556-.718,3.3-.689.89-1.809,1.264-3.877,1.264-2.24,0-3.36-.488-3.963-1.665a4.408,4.408,0,0,1-.345-2.3v-7.18h-1.752v-2.441h1.752v-2.986h3.245v2.986h5.112Z" transform="translate(-560.496 -705.448)" fill="#1a1818"/>
    </g>
    <g id="Group_112" data-name="Group 112" transform="translate(0.286 20.585)">
      <path id="Path_106" data-name="Path 106" d="M409.093,755.908V755.7c0-1.281-.368-1.543-2.175-1.543-2.122,0-2.543.263-2.543,1.6,0,.842.211,1.228.772,1.4a10.8,10.8,0,0,0,2.228.193c1.965.123,2.631.246,3.193.65.719.491.964,1.175.964,2.666,0,1.456-.211,2.245-.719,2.754-.7.684-1.6.877-4.035.877-2.122,0-2.842-.123-3.614-.579a2.227,2.227,0,0,1-.929-1.439,8.676,8.676,0,0,1-.14-1.789h2.158a2.476,2.476,0,0,0,.246,1.474c.281.474.561.526,2.386.526,1.315,0,1.684-.053,2.017-.316.3-.21.421-.666.421-1.473,0-.772-.175-1.14-.649-1.3a7.651,7.651,0,0,0-2.228-.229c-2-.122-2.421-.193-3.017-.473-.929-.456-1.3-1.3-1.3-2.912,0-1.386.3-2.245.93-2.7.719-.544,1.631-.7,3.806-.7,2.193,0,3.14.228,3.719.877a3.165,3.165,0,0,1,.666,2.228v.421Z" transform="translate(-402.094 -752.382)" fill="#1a1818"/>
      <path id="Path_107" data-name="Path 107" d="M430.964,764.322h-2.245v-9.736h-3.385v-1.965h9.086v1.965h-3.456Z" transform="translate(-415.141 -752.517)" fill="#1a1818"/>
      <path id="Path_108" data-name="Path 108" d="M449.4,762.077l-.719,2.245h-2.35l3.894-11.7h3.315l3.964,11.7h-2.3l-.754-2.245Zm2.525-7.736-2,6.069h4.017Z" transform="translate(-426.93 -752.517)" fill="#1a1818"/>
      <path id="Path_109" data-name="Path 109" d="M476.844,764.322H474.6v-9.736h-3.386v-1.965H480.3v1.965h-3.456Z" transform="translate(-440.897 -752.517)" fill="#1a1818"/>
      <path id="Path_110" data-name="Path 110" d="M504.331,752.622v7.788a4.447,4.447,0,0,1-.614,2.807,2.889,2.889,0,0,1-1.526,1,11.212,11.212,0,0,1-2.719.211,7.851,7.851,0,0,1-3.193-.386c-1.263-.544-1.666-1.386-1.666-3.508v-7.911h2.245v7.911c0,1.7.351,1.965,2.631,1.965s2.6-.246,2.6-2.053v-7.823Z" transform="translate(-454.034 -752.517)" fill="#1a1818"/>
      <path id="Path_111" data-name="Path 111" d="M527.091,755.908V755.7c0-1.281-.368-1.543-2.175-1.543-2.122,0-2.543.263-2.543,1.6,0,.842.211,1.228.772,1.4a10.806,10.806,0,0,0,2.228.193c1.964.123,2.631.246,3.193.65.719.491.965,1.175.965,2.666,0,1.456-.211,2.245-.719,2.754-.7.684-1.6.877-4.034.877-2.123,0-2.842-.123-3.614-.579a2.226,2.226,0,0,1-.93-1.439,8.678,8.678,0,0,1-.14-1.789h2.158a2.477,2.477,0,0,0,.245,1.474c.281.474.561.526,2.386.526,1.315,0,1.684-.053,2.017-.316.3-.21.421-.666.421-1.473,0-.772-.175-1.14-.649-1.3a7.651,7.651,0,0,0-2.228-.229c-2-.122-2.421-.193-3.017-.473-.93-.456-1.3-1.3-1.3-2.912,0-1.386.3-2.245.93-2.7.719-.544,1.631-.7,3.807-.7,2.193,0,3.14.228,3.718.877a3.163,3.163,0,0,1,.667,2.228v.421Z" transform="translate(-468.337 -752.382)" fill="#1a1818"/>
    </g>
    <g id="Group_113" data-name="Group 113" transform="translate(63.704 20.472)">
      <path id="Path_112" data-name="Path 112" d="M551.983,754.785a2.649,2.649,0,1,1-2.614-2.661A2.654,2.654,0,0,1,551.983,754.785Zm-4.9,0a2.251,2.251,0,1,0,2.286-2.294A2.277,2.277,0,0,0,547.084,754.785Zm.99-1.514h1.506c.749,0,1.006.234,1.006.9,0,.546-.093.725-.46.827a.513.513,0,0,1,.429.585v.656h-.64v-.546c.008-.3-.117-.429-.429-.421h-.78v.967h-.633Zm1.412,1.466c.375,0,.461-.093.461-.468,0-.4-.063-.469-.422-.469h-.819v.936Z" transform="translate(-546.686 -752.124)" fill="#1a1818"/>
    </g>
  </g>
</svg>
