<svg id="logo-safety-status" xmlns="http://www.w3.org/2000/svg" width="177.796" height="60.584" viewBox="0 0 177.796 60.584">
  <path id="Path_187" data-name="Path 187" d="M79.7,592.827l13.557-23.482.011.007c.183-.317.471-.833,1.253-2.21,2.408-4.232,3.841-6.852,5.773-8.541,5.068-4.429,8.4-3.468,12.527,2.4,1.416,2.016,2.733,4.532,4.932,8.34l13.557,23.482-.011.006.011.019c.32.555,1,1.721,1.628,2.785,3.876,6.613,5.814,9.921,3.333,14.217l-.011-.006c-2.487,4.289-6.309,4.264-13.942,4.213-.812-.005,1.61.012-3.256.012H91.95c-4.866,0-2.444-.017-3.256-.012-7.653.05-11.481.075-13.953-4.207-2.482-4.3-.543-7.605,3.333-14.218.52-.887,1.083-1.845,1.44-2.461.059-.117.12-.234.187-.349" transform="translate(-72.348 -554.662)" fill="#eaaf00" fill-rule="evenodd"/>
  <path id="Path_188" data-name="Path 188" d="M80.09,593.5l14.1-24.429.006,0c.158-.274.71-1.244,1.323-2.321,2.338-4.11,3.749-6.671,5.311-8.035,3.193-2.791,5.378-2.067,8.178,1.921,1.31,1.866,2.73,4.54,4.977,8.432l14.1,24.429-.005,0,.005.01c.477.825,1.12,1.923,1.707,2.923,3.386,5.777,5.08,8.667,3.453,11.482l-.005,0c-1.631,2.811-4.974,2.789-11.652,2.745H86.588c-6.691.044-10.037.066-11.658-2.741s.068-5.7,3.454-11.483c.547-.933,1.144-1.95,1.608-2.753.03-.061.063-.123.1-.183m24.157,1.465a3.8,3.8,0,1,1-3.8,3.8A3.8,3.8,0,0,1,104.247,594.964Zm3.371-5.353a3.3,3.3,0,0,1-6.592,0v-11.7a3.3,3.3,0,0,1,6.592,0Zm-9.728-16.832L85.052,595.014c-7.027,12.172-7.636,11.118,6.419,11.118h25.674c14.055,0,13.446,1.055,6.419-11.118l-12.837-22.235C103.7,560.608,104.916,560.606,97.889,572.779ZM77.245,591.851l14.1-24.429.012.007c.19-.33.49-.867,1.3-2.3,2.505-4.4,4-7.128,6.006-8.885,5.272-4.607,8.743-3.608,13.032,2.5,1.473,2.1,2.843,4.714,5.131,8.676l14.1,24.429-.011.007.011.019c.333.578,1.045,1.791,1.693,2.9,4.032,6.879,6.048,10.321,3.467,14.791l-.011-.007c-2.587,4.462-6.564,4.436-14.5,4.384-.844-.006,1.675.011-3.386.011H89.987c-5.062,0-2.542-.017-3.386-.011-7.962.052-11.944.078-14.516-4.377-2.582-4.471-.565-7.912,3.467-14.791.541-.923,1.126-1.919,1.5-2.56C77.111,592.092,77.176,591.97,77.245,591.851Z" transform="translate(-70.932 -553.369)" fill-rule="evenodd"/>
  <g id="Group_126" data-name="Group 126" transform="translate(79.188 33.652)">
    <path id="Path_189" data-name="Path 189" d="M247.247,627.886H244.9c-.012-.118-.019-.2-.019-.26q-.083-1.066-.473-1.34a3.809,3.809,0,0,0-1.836-.274,5.05,5.05,0,0,0-2.23.315,1.43,1.43,0,0,0-.524,1.326q0,1.2.427,1.438a9.818,9.818,0,0,0,2.819.371,7.371,7.371,0,0,1,3.658.807q.83.649.83,2.7,0,2.523-.974,3.26t-4.293.737q-2.986,0-3.964-.723t-.978-2.93l-.01-.464h2.337l.009.269q0,1.326.464,1.623a6.2,6.2,0,0,0,2.532.3,3.9,3.9,0,0,0,2.059-.343q.445-.343.445-1.586a1.631,1.631,0,0,0-.338-1.219,2.614,2.614,0,0,0-1.46-.366l-1.326-.084q-3-.176-3.839-.835t-.834-2.828q0-2.217,1.006-2.954t4.02-.737a7.48,7.48,0,0,1,3.848.677,3,3,0,0,1,.992,2.643Z" transform="translate(-237.334 -624.084)"/>
    <path id="Path_190" data-name="Path 190" d="M266.246,626.469v10.506h-2.4V626.469h-3.653v-2.151h9.838v2.151Z" transform="translate(-249.314 -624.207)"/>
    <path id="Path_191" data-name="Path 191" d="M289.832,634.546H284.37l-.788,2.429h-2.541l4.21-12.658h3.607l4.275,12.658h-2.495Zm-.556-1.771-2.188-6.593-2.151,6.593Z" transform="translate(-260.242 -624.207)"/>
    <path id="Path_192" data-name="Path 192" d="M312.681,626.469v10.506h-2.4V626.469h-3.654v-2.151h9.839v2.151Z" transform="translate(-273.651 -624.207)"/>
    <path id="Path_193" data-name="Path 193" d="M338,624.318h2.4v8.42q0,2.643-1.015,3.5t-4.15.853q-3.311,0-4.34-.807t-1.029-3.4v-8.559h2.4v8.559q0,1.4.5,1.775a7.634,7.634,0,0,0,4.743,0q.488-.381.487-1.864Z" transform="translate(-285.835 -624.207)"/>
    <path id="Path_194" data-name="Path 194" d="M365.487,627.886h-2.346c-.012-.118-.019-.2-.019-.26q-.083-1.066-.473-1.34a3.808,3.808,0,0,0-1.836-.274,5.05,5.05,0,0,0-2.23.315,1.43,1.43,0,0,0-.524,1.326q0,1.2.427,1.438a9.82,9.82,0,0,0,2.819.371,7.372,7.372,0,0,1,3.658.807q.829.649.83,2.7,0,2.523-.974,3.26t-4.293.737q-2.986,0-3.964-.723t-.978-2.93l-.01-.464h2.337l.009.269q0,1.326.464,1.623a6.193,6.193,0,0,0,2.531.3,3.9,3.9,0,0,0,2.059-.343q.445-.343.445-1.586a1.631,1.631,0,0,0-.338-1.219,2.611,2.611,0,0,0-1.46-.366l-1.326-.084q-3-.176-3.839-.835t-.834-2.828q0-2.217,1.006-2.954t4.02-.737a7.48,7.48,0,0,1,3.848.677,3,3,0,0,1,.992,2.643Z" transform="translate(-299.306 -624.084)"/>
  </g>
  <path id="Path_195" data-name="Path 195" d="M302.761,576.9v2.641H297.18v7.279q0,2.019,1.532,2.019,1.685,0,1.682-2.443v-.575h2.956v.73c0,.663-.021,1.237-.062,1.714q-.287,3.316-4.944,3.318-4.635,0-4.638-4.261v-7.781h-1.885V576.9h1.885V573.65h3.474V576.9Zm-15.712,5.752-.015-.575a3.007,3.007,0,0,0-.6-2.247,4.334,4.334,0,0,0-2.6-.518,3.592,3.592,0,0,0-2.526.621,4.268,4.268,0,0,0-.585,2.718Zm-.031,4.11h3.489v.559q0,4.247-6.367,4.245-4.325,0-5.658-1.47t-1.336-6.233q0-4.232,1.4-5.689t5.441-1.455q3.883,0,5.2,1.419t1.32,5.575v1.062h-9.816c-.015.321-.026.533-.026.637a4.356,4.356,0,0,0,.658,2.847,3.6,3.6,0,0,0,2.63.714,4.848,4.848,0,0,0,2.485-.414A2.137,2.137,0,0,0,287.018,586.758ZM268.681,591.4v-11.86h-2.05V576.9h2.05v-1.548c0-1.838.4-3.111,1.191-3.81s2.231-1.056,4.312-1.056c.352,0,.844.016,1.471.047v2.713a5.637,5.637,0,0,0-1.212-.166,2.014,2.014,0,0,0-2.288,2.273V576.9h3.608v2.641h-3.608V591.4Zm-11-6.492q-2.943,0-2.946,2.035a2.2,2.2,0,0,0,.606,1.848,4.841,4.841,0,0,0,2.552.44q3.168,0,3.168-2.138Q261.066,584.908,257.686,584.9Zm-2.325-3.8h-3.546q0-2.609,1.212-3.49t4.809-.88q3.914,0,5.291,1.077c.921.719,1.382,2.086,1.382,4.111V591.4h-3.473l.166-1.988-.088-.016q-1,2.166-4.628,2.169-5.265,0-5.265-4.473,0-4.519,5.384-4.519c2.4,0,3.857.549,4.369,1.652h.062v-2.35a3.124,3.124,0,0,0-.59-2.252,3.738,3.738,0,0,0-2.428-.554Q255.361,579.065,255.361,581.1Zm-6.869-.212h-3.4c-.02-.12-.036-.212-.047-.275-.072-.7-.269-1.134-.6-1.3a6.571,6.571,0,0,0-2.386-.259q-2.71,0-2.713,1.76c0,.8.16,1.274.476,1.424a13.4,13.4,0,0,0,3.236.368q3.72.178,4.835.983c.751.539,1.124,1.631,1.124,3.293,0,1.771-.5,2.992-1.5,3.676s-2.78,1.025-5.358,1.025c-2.475,0-4.173-.311-5.079-.927s-1.367-1.771-1.367-3.458v-.362h3.609a3.61,3.61,0,0,0-.088.486q-.21,1.926,2.971,1.926,3.285,0,3.287-1.91c0-1.222-.689-1.838-2.061-1.838-3.1,0-5.146-.289-6.135-.88s-1.475-1.8-1.475-3.655q0-2.485,1.351-3.365c.9-.585,2.624-.88,5.187-.88q3.619,0,4.872.849T248.492,580.888Z" transform="translate(-157.3 -562.338)"/>
  <path id="Path_196" data-name="Path 196" d="M393.688,583.819l-3.072,12.514a9.3,9.3,0,0,1-1.993,4.406,5.411,5.411,0,0,1-3.815,1.128q-.59,0-1.227-.062v-2.563c.306.021.554.031.756.031,1.48,0,2.072-.261,2.465-2.829h-1.77l-5.145-12.626h3.727l4,10.425h.073c.861-4.113,1.419-6.327,2.351-10.425Z" transform="translate(-232.86 -569.329)"/>
  <path id="Path_197" data-name="Path 197" d="M390.333,630.169a.134.134,0,0,1-.022.075h0a.127.127,0,0,1-.033.033.172.172,0,0,1-.037.018h0l-.036.01h0l-.038.007h-.033c-.024,0-.049,0-.077,0h-.008l-.053,0h-.008l-.038-.005h0l-.04-.007-.037-.01a.177.177,0,0,1-.037-.019h0a.121.121,0,0,1-.032-.033l0,0h0v0l0,0,0-.005,0,0v0a.142.142,0,0,1-.009-.049v-2.344l-.971,2.383h0a.167.167,0,0,1-.016.029h0a.164.164,0,0,1-.023.026h0l0,0,0,0,0,0,0,0h0a.223.223,0,0,1-.045.022h0l-.035.008-.039.006h-.03l-.06,0h0a.693.693,0,0,1-.1-.006h0l-.039-.007h0l-.033-.009h-.008l-.006,0h0l-.006,0h0a.179.179,0,0,1-.038-.024l0,0a.153.153,0,0,1-.023-.027h0a.138.138,0,0,1-.014-.029h0l-.92-2.361v2.323a.135.135,0,0,1-.022.075.116.116,0,0,1-.033.033.194.194,0,0,1-.037.018h0l-.037.01-.04.007h-.033c-.024,0-.05,0-.077,0h-.009l-.054,0H387l-.032,0h0l-.039-.007-.037-.01h0a.145.145,0,0,1-.036-.019.112.112,0,0,1-.032-.036v-.007l0,0,0-.005,0,0v0a.154.154,0,0,1-.007-.046v-2.862a.323.323,0,0,1,.018-.112h0a.208.208,0,0,1,.061-.088h0l0,0a.393.393,0,0,1,.036-.024h0a.26.26,0,0,1,.039-.019h0a.251.251,0,0,1,.088-.016h.256a.763.763,0,0,1,.077,0h.012c.021,0,.04.007.057.01h.005l.016,0h0l.015,0h0a.349.349,0,0,1,.086.045h0a.413.413,0,0,1,.05.045h0a.342.342,0,0,1,.041.055v0h0l.008.014v0l.008.014h0a.717.717,0,0,1,.037.091l.84,2.1.874-2.093.007-.019v0l.008-.019h0a.667.667,0,0,1,.047-.092l0,0h0l.009-.013,0,0,.009-.013h0a.345.345,0,0,1,.062-.066h0a.3.3,0,0,1,.051-.034h0a.335.335,0,0,1,.056-.023.354.354,0,0,1,.061-.012h0a.587.587,0,0,1,.065,0h.262a.291.291,0,0,1,.046,0h0a.289.289,0,0,1,.046.011h0a.239.239,0,0,1,.044.02.252.252,0,0,1,.038.029h0a.264.264,0,0,1,.03.038h0a.244.244,0,0,1,.022.044.253.253,0,0,1,.015.053h0a.337.337,0,0,1,0,.059ZM386.5,627.3c0,.016,0,.031,0,.047s0,.03,0,.043a.369.369,0,0,1-.008.04h0a.18.18,0,0,1-.015.038h0v0l0,.006,0,0,0,0v0a.148.148,0,0,1-.039.037h0a.151.151,0,0,1-.035.016h0a.149.149,0,0,1-.038.005h-.8v2.624h0a.135.135,0,0,1-.022.075h0a.123.123,0,0,1-.033.033.158.158,0,0,1-.037.019h0l-.037.01-.04.007h0l-.051.005h0l-.06,0h-.008l-.054,0h-.009l-.039,0h0l-.04-.007a.321.321,0,0,1-.039-.01h0a.18.18,0,0,1-.037-.018.122.122,0,0,1-.033-.033h0v0l0,0,0,0,0-.005,0,0v0a.142.142,0,0,1-.01-.051h0v-2.624h-.8a.138.138,0,0,1-.074-.021h0a.127.127,0,0,1-.032-.028.139.139,0,0,1-.021-.034v0h0l0-.006v0l0-.007h0a.39.39,0,0,1-.013-.051h0a.4.4,0,0,1-.005-.044h0c0-.015,0-.031,0-.047s0-.032,0-.048h0c0-.015,0-.03.005-.045h0v0h0l0-.01v0l0-.009h0a.338.338,0,0,1,.015-.047h0a.159.159,0,0,1,.021-.035h0a.141.141,0,0,1,.032-.029h0a.135.135,0,0,1,.035-.016h0a.143.143,0,0,1,.038-.005h2.164a.138.138,0,0,1,.074.021h0a.147.147,0,0,1,.029.026h0a.2.2,0,0,1,.021.032h0a.208.208,0,0,1,.015.039h0a.288.288,0,0,1,.008.041h0v.02h0v.01h0C386.5,627.257,386.5,627.276,386.5,627.3Z" transform="translate(-235.029 -591.984)"/>
  <g id="Group_127" data-name="Group 127" transform="translate(79.054 50.95)">
    <path id="Path_198" data-name="Path 198" d="M237.053,662.142a1.373,1.373,0,0,1,.106-.485,1.683,1.683,0,0,1,.282-.455l.556-.644a.345.345,0,0,1,.143-.094.764.764,0,0,1,.241-.03.8.8,0,0,1,.143.01.16.16,0,0,1,.076.031.052.052,0,0,1,.017.054.244.244,0,0,1-.037.081l-.576.917-.1.492a.71.71,0,0,1-.054.184.265.265,0,0,1-.089.106.336.336,0,0,1-.137.049,1.461,1.461,0,0,1-.2.012,1.2,1.2,0,0,1-.185-.012.31.31,0,0,1-.113-.039.134.134,0,0,1-.058-.071A.316.316,0,0,1,237.053,662.142Zm1.324,0a1.373,1.373,0,0,1,.107-.485,1.625,1.625,0,0,1,.285-.455l.553-.644a.346.346,0,0,1,.143-.094.761.761,0,0,1,.241-.03.8.8,0,0,1,.141.01.162.162,0,0,1,.078.031.052.052,0,0,1,.017.054.3.3,0,0,1-.034.081l-.579.917-.1.492a.708.708,0,0,1-.054.184.261.261,0,0,1-.089.106.331.331,0,0,1-.137.049,1.448,1.448,0,0,1-.2.012,1.207,1.207,0,0,1-.186-.012.314.314,0,0,1-.113-.039.135.135,0,0,1-.057-.071A.3.3,0,0,1,238.377,662.142Z" transform="translate(-237.053 -660.434)"/>
  </g>
  <g id="Group_128" data-name="Group 128" transform="translate(82.156 51.287)">
    <path id="Path_199" data-name="Path 199" d="M247.694,665.3a.454.454,0,0,1-.078.129.261.261,0,0,1-.118.073.8.8,0,0,1-.187.03c-.075,0-.17.007-.285.007s-.219,0-.3-.007a.684.684,0,0,1-.175-.029.148.148,0,0,1-.086-.066.273.273,0,0,1-.027-.114l-.158-2.794h-.007l-1.209,2.77a.547.547,0,0,1-.073.129.231.231,0,0,1-.1.073.654.654,0,0,1-.176.03c-.074,0-.169.007-.286.007q-.2,0-.323-.007a.71.71,0,0,1-.187-.03.14.14,0,0,1-.088-.075.388.388,0,0,1-.026-.138l-.236-3.834a1.155,1.155,0,0,1,0-.172.132.132,0,0,1,.056-.1.3.3,0,0,1,.14-.04q.093-.008.261-.008c.092,0,.169,0,.232.008a.432.432,0,0,1,.14.031.1.1,0,0,1,.058.059.339.339,0,0,1,.012.1l.087,3.325h.007l1.472-3.322a.4.4,0,0,1,.059-.1.208.208,0,0,1,.089-.061.538.538,0,0,1,.15-.029c.062,0,.144-.007.248-.007s.185,0,.246.007a.416.416,0,0,1,.138.029.106.106,0,0,1,.06.062.417.417,0,0,1,.017.107l.168,3.316h.007l1.432-3.362a.224.224,0,0,1,.046-.079.181.181,0,0,1,.084-.049.717.717,0,0,1,.15-.023c.063,0,.143-.007.242-.007a1.753,1.753,0,0,1,.227.011.171.171,0,0,1,.113.049.116.116,0,0,1,.01.109,1.673,1.673,0,0,1-.071.191Z" transform="translate(-243.572 -661.142)"/>
  </g>
  <g id="Group_129" data-name="Group 129" transform="translate(87.685 50.95)">
    <path id="Path_200" data-name="Path 200" d="M258.438,664.589a2.829,2.829,0,0,1-.046.5,2.547,2.547,0,0,1-.143.5,2.155,2.155,0,0,1-.251.458,1.77,1.77,0,0,1-.367.377,1.722,1.722,0,0,1-.49.258,2.158,2.158,0,0,1-1.211.015,1.075,1.075,0,0,1-.413-.232.948.948,0,0,1-.246-.377,1.512,1.512,0,0,1-.081-.514,2.827,2.827,0,0,1,.046-.5,2.5,2.5,0,0,1,.143-.5,2.263,2.263,0,0,1,.251-.46,1.7,1.7,0,0,1,.367-.379,1.755,1.755,0,0,1,.49-.256,2.158,2.158,0,0,1,1.211-.015,1.068,1.068,0,0,1,.413.232.948.948,0,0,1,.246.377A1.513,1.513,0,0,1,258.438,664.589Zm-.876.057a1,1,0,0,0-.029-.251.464.464,0,0,0-.094-.186.428.428,0,0,0-.169-.116.762.762,0,0,0-.554.025.837.837,0,0,0-.24.177,1.128,1.128,0,0,0-.184.258,1.871,1.871,0,0,0-.129.308,2.1,2.1,0,0,0-.074.329,2.274,2.274,0,0,0-.024.318,1.015,1.015,0,0,0,.029.252.457.457,0,0,0,.095.187.425.425,0,0,0,.168.116.692.692,0,0,0,.251.04.685.685,0,0,0,.3-.066.834.834,0,0,0,.24-.179,1.174,1.174,0,0,0,.184-.259,1.825,1.825,0,0,0,.128-.31,2.167,2.167,0,0,0,.074-.329A2.245,2.245,0,0,0,257.562,664.646Z" transform="translate(-255.19 -661.981)"/>
    <path id="Path_201" data-name="Path 201" d="M265.186,663.531c0,.016,0,.043-.007.084s-.011.088-.02.142-.02.109-.034.167a1.606,1.606,0,0,1-.046.16.517.517,0,0,1-.057.121.087.087,0,0,1-.069.047.172.172,0,0,1-.061-.011c-.02-.008-.042-.016-.067-.024l-.081-.023a.4.4,0,0,0-.1-.012.442.442,0,0,0-.245.088,1.186,1.186,0,0,0-.247.231,1.686,1.686,0,0,0-.211.334,1.605,1.605,0,0,0-.133.4l-.269,1.352a.119.119,0,0,1-.032.059.191.191,0,0,1-.078.042.672.672,0,0,1-.136.025c-.057.006-.125.009-.206.009a1.941,1.941,0,0,1-.2-.009.537.537,0,0,1-.125-.025.107.107,0,0,1-.059-.042.086.086,0,0,1-.007-.059l.6-3.009a.116.116,0,0,1,.03-.059.165.165,0,0,1,.069-.04.62.62,0,0,1,.118-.023,1.493,1.493,0,0,1,.174-.009,1.344,1.344,0,0,1,.17.009.445.445,0,0,1,.1.023.088.088,0,0,1,.049.04.093.093,0,0,1,.005.059l-.094.479a1.559,1.559,0,0,1,.187-.266,1.457,1.457,0,0,1,.226-.211,1.069,1.069,0,0,1,.247-.14.691.691,0,0,1,.253-.05.747.747,0,0,1,.1.007.885.885,0,0,1,.1.017.443.443,0,0,1,.081.025.225.225,0,0,1,.056.032A.088.088,0,0,1,265.186,663.531Z" transform="translate(-259.121 -661.981)"/>
    <path id="Path_202" data-name="Path 202" d="M271.079,662.047a.245.245,0,0,1-.046.126,1.285,1.285,0,0,1-.15.184l-1.061,1,.691,1.449a.827.827,0,0,1,.047.142.462.462,0,0,1,.014.094.119.119,0,0,1-.022.07.166.166,0,0,1-.074.051.539.539,0,0,1-.141.028c-.06.006-.134.009-.224.009s-.162,0-.217-.007a.5.5,0,0,1-.128-.024.146.146,0,0,1-.067-.043.173.173,0,0,1-.032-.068l-.711-1.583-.316,1.59a.144.144,0,0,1-.036.059.188.188,0,0,1-.077.042.673.673,0,0,1-.137.025,2.056,2.056,0,0,1-.206.009,1.934,1.934,0,0,1-.2-.009.563.563,0,0,1-.123-.023.1.1,0,0,1-.059-.04.078.078,0,0,1-.009-.059l.889-4.434a.124.124,0,0,1,.03-.061.186.186,0,0,1,.078-.046.713.713,0,0,1,.136-.028,1.664,1.664,0,0,1,.207-.01,1.584,1.584,0,0,1,.2.01.5.5,0,0,1,.123.028.111.111,0,0,1,.058.046.093.093,0,0,1,.007.061L269,663.273l1.125-1.2a.412.412,0,0,1,.072-.069.307.307,0,0,1,.1-.046.8.8,0,0,1,.147-.023q.086-.007.214-.007c.083,0,.153,0,.209.007a.574.574,0,0,1,.131.022.13.13,0,0,1,.066.039A.083.083,0,0,1,271.079,662.047Z" transform="translate(-261.793 -660.463)"/>
    <path id="Path_203" data-name="Path 203" d="M280.983,661.433c0,.018,0,.044-.005.078s-.008.07-.015.111-.015.081-.025.123a.73.73,0,0,1-.037.114.371.371,0,0,1-.049.086.075.075,0,0,1-.058.034.243.243,0,0,1-.118-.042c-.047-.028-.1-.058-.173-.091a1.739,1.739,0,0,0-.241-.09,1.056,1.056,0,0,0-.313-.042.83.83,0,0,0-.308.05.59.59,0,0,0-.207.133.531.531,0,0,0-.119.185.578.578,0,0,0-.039.208.381.381,0,0,0,.061.214.717.717,0,0,0,.161.172,2.027,2.027,0,0,0,.231.154q.13.074.263.155t.263.177a1.262,1.262,0,0,1,.231.222,1.027,1.027,0,0,1,.162.29,1.072,1.072,0,0,1,.06.375,1.354,1.354,0,0,1-.128.588,1.4,1.4,0,0,1-.362.472,1.724,1.724,0,0,1-.566.315,2.239,2.239,0,0,1-.737.115,2.175,2.175,0,0,1-.4-.035,2.332,2.332,0,0,1-.328-.086,1.466,1.466,0,0,1-.241-.107.612.612,0,0,1-.145-.106.217.217,0,0,1-.047-.152.659.659,0,0,1,.007-.081c0-.036.01-.075.019-.116s.017-.084.029-.128a.8.8,0,0,1,.04-.119.363.363,0,0,1,.052-.088.082.082,0,0,1,.062-.033.261.261,0,0,1,.137.052c.052.035.118.073.2.115a2.007,2.007,0,0,0,.28.116,1.237,1.237,0,0,0,.387.054,1.073,1.073,0,0,0,.348-.051.74.74,0,0,0,.251-.138.586.586,0,0,0,.153-.2.613.613,0,0,0,.052-.254.4.4,0,0,0-.06-.219.728.728,0,0,0-.16-.174,1.729,1.729,0,0,0-.226-.15c-.084-.047-.17-.1-.257-.151s-.174-.112-.258-.176a1.178,1.178,0,0,1-.226-.22,1.056,1.056,0,0,1-.16-.292,1.109,1.109,0,0,1-.06-.384,1.291,1.291,0,0,1,.121-.56,1.309,1.309,0,0,1,.337-.44,1.572,1.572,0,0,1,.515-.286,2.028,2.028,0,0,1,.661-.1,1.98,1.98,0,0,1,.32.025,2,2,0,0,1,.276.064,1.148,1.148,0,0,1,.212.086.577.577,0,0,1,.121.079.2.2,0,0,1,.049.067A.232.232,0,0,1,280.983,661.433Z" transform="translate(-267.013 -660.742)"/>
    <path id="Path_204" data-name="Path 204" d="M287.656,666.587a.137.137,0,0,1-.106.1,1.035,1.035,0,0,1-.3.031,1.655,1.655,0,0,1-.17-.007.438.438,0,0,1-.106-.022.09.09,0,0,1-.052-.04.1.1,0,0,1,0-.062l.094-.482a.9.9,0,0,1-.162.227,1.342,1.342,0,0,1-.263.217,1.585,1.585,0,0,1-.335.162,1.143,1.143,0,0,1-.379.064.953.953,0,0,1-.448-.094.784.784,0,0,1-.286-.255,1.056,1.056,0,0,1-.153-.365,1.984,1.984,0,0,1-.046-.431,2.907,2.907,0,0,1,.04-.464,3.132,3.132,0,0,1,.125-.5,2.758,2.758,0,0,1,.216-.48,1.824,1.824,0,0,1,.315-.41,1.443,1.443,0,0,1,.421-.285,1.3,1.3,0,0,1,.537-.106,1.031,1.031,0,0,1,.5.116,1.133,1.133,0,0,1,.377.339l.054-.266a.138.138,0,0,1,.106-.1,1.04,1.04,0,0,1,.3-.03,1.357,1.357,0,0,1,.168.009.475.475,0,0,1,.106.023.1.1,0,0,1,.052.04.087.087,0,0,1,.007.059Zm-.417-2.109a.9.9,0,0,0-.261-.278.6.6,0,0,0-.332-.093.509.509,0,0,0-.259.068.736.736,0,0,0-.209.18,1.277,1.277,0,0,0-.16.261,2.059,2.059,0,0,0-.115.308,2.281,2.281,0,0,0-.067.324,2.257,2.257,0,0,0-.022.3,1.128,1.128,0,0,0,.016.192.484.484,0,0,0,.055.162.3.3,0,0,0,.28.155.6.6,0,0,0,.3-.089,1.156,1.156,0,0,0,.29-.243,1.7,1.7,0,0,0,.237-.357,1.733,1.733,0,0,0,.15-.436Z" transform="translate(-270.783 -661.981)"/>
    <path id="Path_205" data-name="Path 205" d="M294.283,660.663c0,.013,0,.035-.005.066s-.008.065-.013.1-.013.077-.022.118a1.056,1.056,0,0,1-.032.113.331.331,0,0,1-.042.084.064.064,0,0,1-.05.032.186.186,0,0,1-.052-.01l-.072-.022c-.027-.008-.058-.015-.093-.022a.593.593,0,0,0-.113-.01.517.517,0,0,0-.187.031.339.339,0,0,0-.137.1.587.587,0,0,0-.1.17,1.376,1.376,0,0,0-.067.25l-.051.256h.546a.076.076,0,0,1,.07.032.2.2,0,0,1,.02.1c0,.022,0,.052,0,.088a.98.98,0,0,1-.019.117,1.249,1.249,0,0,1-.034.123.978.978,0,0,1-.044.111.286.286,0,0,1-.056.083.1.1,0,0,1-.069.032h-.552l-.529,2.642a2.206,2.206,0,0,1-.157.492,1.147,1.147,0,0,1-.251.355.973.973,0,0,1-.358.216,1.416,1.416,0,0,1-.47.073,1.332,1.332,0,0,1-.293-.027.424.424,0,0,1-.151-.054.113.113,0,0,1-.024-.044.271.271,0,0,1-.007-.068c0-.013,0-.036,0-.067s.009-.066.015-.1.015-.076.025-.116a1.023,1.023,0,0,1,.034-.111.313.313,0,0,1,.042-.083.067.067,0,0,1,.054-.032.238.238,0,0,1,.04,0l.044.009a.381.381,0,0,0,.056.008.758.758,0,0,0,.082,0,.5.5,0,0,0,.187-.032.352.352,0,0,0,.137-.1.6.6,0,0,0,.1-.174,1.665,1.665,0,0,0,.071-.258l.509-2.534h-.377a.074.074,0,0,1-.062-.029.19.19,0,0,1-.022-.109.84.84,0,0,1,.005-.088,1.09,1.09,0,0,1,.017-.115c.008-.04.017-.081.029-.123a.537.537,0,0,1,.044-.111.367.367,0,0,1,.059-.081.1.1,0,0,1,.076-.032h.371l.064-.334a2.02,2.02,0,0,1,.158-.5,1.221,1.221,0,0,1,.258-.36,1,1,0,0,1,.361-.218,1.412,1.412,0,0,1,.47-.072c.058,0,.117,0,.175.008a1.45,1.45,0,0,1,.158.024.953.953,0,0,1,.125.035.227.227,0,0,1,.074.04.091.091,0,0,1,.029.048A.274.274,0,0,1,294.283,660.663Z" transform="translate(-273.889 -660.434)"/>
  </g>
  <g id="Group_130" data-name="Group 130" transform="translate(107.576 50.95)">
    <path id="Path_206" data-name="Path 206" d="M300.055,664.239a.872.872,0,0,1-.109.436.935.935,0,0,1-.34.333,1.855,1.855,0,0,1-.586.214,4.164,4.164,0,0,1-.848.075h-.31c-.009.051-.016.1-.02.153s-.007.1-.007.14a.549.549,0,0,0,.141.411.636.636,0,0,0,.455.138,2.248,2.248,0,0,0,.4-.031,3.017,3.017,0,0,0,.31-.071c.089-.025.162-.049.221-.07a.427.427,0,0,1,.128-.032.066.066,0,0,1,.058.024.131.131,0,0,1,.017.074.994.994,0,0,1-.01.132,1.274,1.274,0,0,1-.029.147.856.856,0,0,1-.047.137.3.3,0,0,1-.066.1.445.445,0,0,1-.148.081,1.985,1.985,0,0,1-.259.074,3.469,3.469,0,0,1-.724.078,2.113,2.113,0,0,1-.564-.068,1.043,1.043,0,0,1-.4-.205.85.85,0,0,1-.243-.353,1.434,1.434,0,0,1-.081-.507,3.023,3.023,0,0,1,.042-.484,2.68,2.68,0,0,1,.136-.508,2.558,2.558,0,0,1,.243-.481,1.761,1.761,0,0,1,.359-.4,1.7,1.7,0,0,1,.487-.278,1.764,1.764,0,0,1,.63-.1,1.7,1.7,0,0,1,.527.072,1.082,1.082,0,0,1,.362.192.772.772,0,0,1,.211.273A.765.765,0,0,1,300.055,664.239Zm-.832.064a.28.28,0,0,0-.106-.224.466.466,0,0,0-.308-.089.71.71,0,0,0-.3.061.769.769,0,0,0-.234.163,1.006,1.006,0,0,0-.174.243,1.514,1.514,0,0,0-.116.3h.283a2.488,2.488,0,0,0,.452-.035,1.034,1.034,0,0,0,.293-.1.415.415,0,0,0,.162-.143A.337.337,0,0,0,299.223,664.3Z" transform="translate(-296.989 -661.981)"/>
    <path id="Path_207" data-name="Path 207" d="M304.479,668.529a1.274,1.274,0,0,1-.1.5,1.618,1.618,0,0,1-.3.462l-.58.647a.336.336,0,0,1-.157.1.969.969,0,0,1-.265.029.99.99,0,0,1-.157-.01.2.2,0,0,1-.083-.029.049.049,0,0,1-.017-.052.329.329,0,0,1,.034-.084l.593-.93.1-.5a.723.723,0,0,1,.061-.186.275.275,0,0,1,.1-.107.365.365,0,0,1,.147-.049,1.7,1.7,0,0,1,.216-.011,1.488,1.488,0,0,1,.2.011.333.333,0,0,1,.126.04.157.157,0,0,1,.064.073A.274.274,0,0,1,304.479,668.529Z" transform="translate(-300.045 -664.557)"/>
    <path id="Path_208" data-name="Path 208" d="M314.495,665.4a.116.116,0,0,1-.034.061.2.2,0,0,1-.081.044.718.718,0,0,1-.141.025c-.058.006-.13.009-.216.009s-.156,0-.212-.009a.556.556,0,0,1-.13-.025.125.125,0,0,1-.062-.044.073.073,0,0,1-.007-.061l.351-1.766h-1.631l-.351,1.766a.118.118,0,0,1-.033.061.2.2,0,0,1-.083.044.759.759,0,0,1-.141.025c-.058.006-.129.009-.214.009a2.135,2.135,0,0,1-.214-.009.578.578,0,0,1-.13-.025.125.125,0,0,1-.064-.044.071.071,0,0,1-.006-.061l.825-4.124a.1.1,0,0,1,.03-.06.2.2,0,0,1,.081-.044.716.716,0,0,1,.142-.026q.088-.008.216-.008c.086,0,.156,0,.212.008a.572.572,0,0,1,.131.026.108.108,0,0,1,.062.044.086.086,0,0,1,.009.06l-.32,1.6h1.634l.317-1.6a.114.114,0,0,1,.034-.06.189.189,0,0,1,.08-.044.717.717,0,0,1,.142-.026c.058-.005.13-.008.216-.008s.156,0,.212.008a.571.571,0,0,1,.131.026.109.109,0,0,1,.062.044.087.087,0,0,1,.009.06Z" transform="translate(-304.38 -660.805)"/>
    <path id="Path_209" data-name="Path 209" d="M323.53,664.589a2.83,2.83,0,0,1-.045.5,2.543,2.543,0,0,1-.143.5,2.176,2.176,0,0,1-.251.458,1.781,1.781,0,0,1-.367.377,1.722,1.722,0,0,1-.49.258,2.16,2.16,0,0,1-1.212.015,1.077,1.077,0,0,1-.413-.232.944.944,0,0,1-.246-.377,1.513,1.513,0,0,1-.081-.514,2.829,2.829,0,0,1,.046-.5,2.472,2.472,0,0,1,.143-.5,2.238,2.238,0,0,1,.251-.46,1.7,1.7,0,0,1,.367-.379,1.754,1.754,0,0,1,.49-.256,2.158,2.158,0,0,1,1.211-.015,1.075,1.075,0,0,1,.413.232.942.942,0,0,1,.246.377A1.5,1.5,0,0,1,323.53,664.589Zm-.876.057a1,1,0,0,0-.029-.251.458.458,0,0,0-.095-.186.426.426,0,0,0-.168-.116.694.694,0,0,0-.251-.04.685.685,0,0,0-.3.066.846.846,0,0,0-.241.177,1.127,1.127,0,0,0-.183.258,1.833,1.833,0,0,0-.128.308,2.1,2.1,0,0,0-.074.329,2.279,2.279,0,0,0-.024.318,1.012,1.012,0,0,0,.029.252.461.461,0,0,0,.094.187.428.428,0,0,0,.168.116.7.7,0,0,0,.251.04.682.682,0,0,0,.3-.066.829.829,0,0,0,.241-.179,1.173,1.173,0,0,0,.184-.259,1.82,1.82,0,0,0,.129-.31,2.17,2.17,0,0,0,.074-.329A2.249,2.249,0,0,0,322.654,664.646Z" transform="translate(-309.197 -661.981)"/>
    <path id="Path_210" data-name="Path 210" d="M332.5,666.584a.114.114,0,0,1-.032.059.194.194,0,0,1-.079.042.7.7,0,0,1-.136.025,2.047,2.047,0,0,1-.207.009,1.939,1.939,0,0,1-.2-.009.506.506,0,0,1-.125-.025.111.111,0,0,1-.059-.042.069.069,0,0,1-.005-.059l.361-1.8c.009-.052.017-.1.023-.154a1.176,1.176,0,0,0,.01-.153.493.493,0,0,0-.059-.256.226.226,0,0,0-.211-.1.544.544,0,0,0-.28.087,1.227,1.227,0,0,0-.278.237,1.685,1.685,0,0,0-.236.351,1.6,1.6,0,0,0-.147.426l-.273,1.362a.115.115,0,0,1-.032.059.2.2,0,0,1-.079.042.71.71,0,0,1-.137.025,2.048,2.048,0,0,1-.207.009,1.9,1.9,0,0,1-.2-.009.5.5,0,0,1-.123-.025.111.111,0,0,1-.059-.042.081.081,0,0,1-.009-.059l.357-1.8a1.093,1.093,0,0,0,.029-.16c.005-.055.009-.108.009-.16a.452.452,0,0,0-.061-.245.228.228,0,0,0-.209-.1.546.546,0,0,0-.28.087,1.228,1.228,0,0,0-.278.237,1.684,1.684,0,0,0-.236.351,1.6,1.6,0,0,0-.147.426l-.273,1.362a.115.115,0,0,1-.032.059.194.194,0,0,1-.078.042.671.671,0,0,1-.137.025,2.055,2.055,0,0,1-.206.009,1.941,1.941,0,0,1-.2-.009.536.536,0,0,1-.125-.025.1.1,0,0,1-.059-.042.086.086,0,0,1-.007-.059l.6-3.009a.125.125,0,0,1,.029-.059.153.153,0,0,1,.067-.04.626.626,0,0,1,.118-.023,1.487,1.487,0,0,1,.174-.009,1.345,1.345,0,0,1,.17.009.439.439,0,0,1,.1.023.089.089,0,0,1,.049.04.094.094,0,0,1,.005.059l-.1.5a1.362,1.362,0,0,1,.189-.24,1.483,1.483,0,0,1,.268-.221,1.543,1.543,0,0,1,.327-.16,1.1,1.1,0,0,1,.366-.062.991.991,0,0,1,.338.052.635.635,0,0,1,.236.145.625.625,0,0,1,.141.218,1,1,0,0,1,.062.269,1.468,1.468,0,0,1,.2-.242,1.581,1.581,0,0,1,.269-.219,1.553,1.553,0,0,1,.325-.16,1.076,1.076,0,0,1,.361-.062,1.035,1.035,0,0,1,.4.066.648.648,0,0,1,.258.181.72.72,0,0,1,.141.273,1.242,1.242,0,0,1,.044.339,2.1,2.1,0,0,1-.013.237,2.448,2.448,0,0,1-.04.244Z" transform="translate(-313.128 -661.981)"/>
    <path id="Path_211" data-name="Path 211" d="M342.642,664.239a.872.872,0,0,1-.109.436.935.935,0,0,1-.34.333,1.859,1.859,0,0,1-.586.214,4.163,4.163,0,0,1-.848.075h-.31c-.009.051-.016.1-.02.153s-.007.1-.007.14a.549.549,0,0,0,.141.411.635.635,0,0,0,.455.138,2.25,2.25,0,0,0,.4-.031,3.024,3.024,0,0,0,.31-.071c.089-.025.162-.049.221-.07a.423.423,0,0,1,.128-.032.066.066,0,0,1,.058.024.131.131,0,0,1,.017.074.989.989,0,0,1-.01.132,1.268,1.268,0,0,1-.029.147.856.856,0,0,1-.047.137.3.3,0,0,1-.066.1.444.444,0,0,1-.148.081,2.007,2.007,0,0,1-.259.074,3.469,3.469,0,0,1-.724.078,2.11,2.11,0,0,1-.564-.068,1.04,1.04,0,0,1-.4-.205.851.851,0,0,1-.243-.353,1.436,1.436,0,0,1-.081-.507,2.968,2.968,0,0,1,.042-.484,2.678,2.678,0,0,1,.136-.508,2.5,2.5,0,0,1,.243-.481,1.751,1.751,0,0,1,.359-.4,1.7,1.7,0,0,1,.487-.278,1.764,1.764,0,0,1,.63-.1,1.7,1.7,0,0,1,.527.072,1.081,1.081,0,0,1,.362.192.762.762,0,0,1,.28.588Zm-.832.064a.28.28,0,0,0-.106-.224.467.467,0,0,0-.308-.089.71.71,0,0,0-.3.061.777.777,0,0,0-.235.163,1.017,1.017,0,0,0-.173.243,1.514,1.514,0,0,0-.116.3h.283a2.488,2.488,0,0,0,.452-.035,1.035,1.035,0,0,0,.293-.1.418.418,0,0,0,.162-.143A.337.337,0,0,0,341.81,664.3Z" transform="translate(-319.31 -661.981)"/>
    <path id="Path_212" data-name="Path 212" d="M352.787,661.433c0,.018,0,.044-.005.078s-.009.07-.015.111-.015.081-.025.123a.789.789,0,0,1-.037.114.351.351,0,0,1-.049.086.073.073,0,0,1-.057.034.241.241,0,0,1-.118-.042c-.047-.028-.105-.058-.174-.091a1.728,1.728,0,0,0-.241-.09,1.058,1.058,0,0,0-.313-.042.83.83,0,0,0-.308.05.589.589,0,0,0-.207.133.539.539,0,0,0-.12.185.586.586,0,0,0-.039.208.381.381,0,0,0,.06.214.719.719,0,0,0,.162.172,1.987,1.987,0,0,0,.231.154q.13.074.263.155t.263.177a1.248,1.248,0,0,1,.231.222,1.04,1.04,0,0,1,.162.29,1.073,1.073,0,0,1,.06.375,1.361,1.361,0,0,1-.128.588,1.41,1.41,0,0,1-.362.472,1.721,1.721,0,0,1-.566.315,2.238,2.238,0,0,1-.736.115,2.18,2.18,0,0,1-.4-.035,2.366,2.366,0,0,1-.328-.086,1.48,1.48,0,0,1-.241-.107.616.616,0,0,1-.145-.106.217.217,0,0,1-.047-.152.737.737,0,0,1,.006-.081c0-.036.011-.075.019-.116s.018-.084.029-.128a.738.738,0,0,1,.04-.119.361.361,0,0,1,.052-.088.082.082,0,0,1,.062-.033.259.259,0,0,1,.137.052c.053.035.118.073.2.115a2.031,2.031,0,0,0,.28.116,1.241,1.241,0,0,0,.387.054,1.074,1.074,0,0,0,.349-.051.74.74,0,0,0,.251-.138.586.586,0,0,0,.153-.2.614.614,0,0,0,.052-.254.4.4,0,0,0-.06-.219.738.738,0,0,0-.16-.174,1.761,1.761,0,0,0-.226-.15q-.126-.071-.257-.151c-.088-.054-.174-.112-.258-.176a1.176,1.176,0,0,1-.226-.22,1.045,1.045,0,0,1-.16-.292,1.111,1.111,0,0,1-.06-.384,1.291,1.291,0,0,1,.121-.56,1.309,1.309,0,0,1,.337-.44,1.572,1.572,0,0,1,.515-.286,2.028,2.028,0,0,1,.661-.1,1.98,1.98,0,0,1,.32.025,2.016,2.016,0,0,1,.276.064,1.175,1.175,0,0,1,.212.086.578.578,0,0,1,.121.079.207.207,0,0,1,.049.067A.223.223,0,0,1,352.787,661.433Z" transform="translate(-324.538 -660.742)"/>
    <path id="Path_213" data-name="Path 213" d="M359.46,666.587a.137.137,0,0,1-.106.1,1.035,1.035,0,0,1-.3.031,1.655,1.655,0,0,1-.17-.007.438.438,0,0,1-.106-.022.088.088,0,0,1-.052-.04.106.106,0,0,1-.005-.062l.095-.482a.908.908,0,0,1-.162.227,1.339,1.339,0,0,1-.263.217,1.576,1.576,0,0,1-.335.162,1.141,1.141,0,0,1-.379.064.953.953,0,0,1-.448-.094.78.78,0,0,1-.286-.255,1.055,1.055,0,0,1-.153-.365,1.982,1.982,0,0,1-.045-.431,2.914,2.914,0,0,1,.04-.464,3.084,3.084,0,0,1,.125-.5,2.687,2.687,0,0,1,.216-.48,1.811,1.811,0,0,1,.315-.41,1.443,1.443,0,0,1,.421-.285,1.3,1.3,0,0,1,.537-.106,1.032,1.032,0,0,1,.5.116,1.133,1.133,0,0,1,.377.339l.054-.266a.138.138,0,0,1,.106-.1,1.038,1.038,0,0,1,.3-.03,1.363,1.363,0,0,1,.168.009.474.474,0,0,1,.106.023.1.1,0,0,1,.052.04.087.087,0,0,1,.007.059Zm-.418-2.109a.892.892,0,0,0-.261-.278.6.6,0,0,0-.332-.093.51.51,0,0,0-.259.068.742.742,0,0,0-.209.18,1.28,1.28,0,0,0-.16.261,2.052,2.052,0,0,0-.115.308,2.223,2.223,0,0,0-.067.324,2.252,2.252,0,0,0-.022.3,1.178,1.178,0,0,0,.015.192.475.475,0,0,0,.056.162.3.3,0,0,0,.279.155.605.605,0,0,0,.3-.089,1.157,1.157,0,0,0,.29-.243,1.694,1.694,0,0,0,.237-.357,1.733,1.733,0,0,0,.15-.436Z" transform="translate(-328.308 -661.981)"/>
    <path id="Path_214" data-name="Path 214" d="M366.087,660.663a.564.564,0,0,1-.005.066c0,.03-.008.065-.013.1s-.013.077-.022.118a.953.953,0,0,1-.032.113.318.318,0,0,1-.042.084.064.064,0,0,1-.05.032.181.181,0,0,1-.052-.01l-.073-.022c-.027-.008-.058-.015-.093-.022a.594.594,0,0,0-.113-.01.513.513,0,0,0-.187.031.341.341,0,0,0-.137.1.587.587,0,0,0-.1.17,1.425,1.425,0,0,0-.067.25l-.051.256h.546a.076.076,0,0,1,.07.032.2.2,0,0,1,.02.1c0,.022,0,.052-.005.088a.968.968,0,0,1-.019.117,1.24,1.24,0,0,1-.034.123.984.984,0,0,1-.044.111.3.3,0,0,1-.055.083.1.1,0,0,1-.069.032h-.553l-.529,2.642a2.206,2.206,0,0,1-.157.492,1.146,1.146,0,0,1-.251.355.979.979,0,0,1-.359.216,1.412,1.412,0,0,1-.47.073,1.332,1.332,0,0,1-.293-.027.424.424,0,0,1-.151-.054.114.114,0,0,1-.024-.044.271.271,0,0,1-.007-.068.618.618,0,0,1,.005-.067c0-.032.008-.066.015-.1s.015-.076.026-.116a1.15,1.15,0,0,1,.033-.111.326.326,0,0,1,.042-.083.067.067,0,0,1,.054-.032.238.238,0,0,1,.04,0l.044.009a.382.382,0,0,0,.056.008.763.763,0,0,0,.082,0,.5.5,0,0,0,.187-.032.351.351,0,0,0,.137-.1.6.6,0,0,0,.1-.174,1.605,1.605,0,0,0,.071-.258l.509-2.534h-.377a.074.074,0,0,1-.062-.029.189.189,0,0,1-.022-.109c0-.023,0-.051.005-.088a1.09,1.09,0,0,1,.017-.115c.008-.04.018-.081.029-.123a.511.511,0,0,1,.043-.111.383.383,0,0,1,.059-.081.1.1,0,0,1,.076-.032h.37l.064-.334a1.981,1.981,0,0,1,.158-.5,1.21,1.21,0,0,1,.257-.36,1,1,0,0,1,.361-.218,1.414,1.414,0,0,1,.47-.072c.058,0,.117,0,.175.008a1.433,1.433,0,0,1,.158.024.959.959,0,0,1,.125.035.224.224,0,0,1,.074.04.094.094,0,0,1,.029.048A.3.3,0,0,1,366.087,660.663Z" transform="translate(-331.414 -660.434)"/>
  </g>
  <g id="Group_131" data-name="Group 131" transform="translate(141.746 51.307)">
    <path id="Path_215" data-name="Path 215" d="M371.857,664.239a.867.867,0,0,1-.109.436.93.93,0,0,1-.34.333,1.858,1.858,0,0,1-.586.214,4.164,4.164,0,0,1-.848.075h-.31c-.01.051-.016.1-.02.153s-.007.1-.007.14a.549.549,0,0,0,.141.411.634.634,0,0,0,.455.138,2.25,2.25,0,0,0,.4-.031,3.019,3.019,0,0,0,.31-.071c.089-.025.162-.049.22-.07a.429.429,0,0,1,.128-.032.066.066,0,0,1,.058.024.131.131,0,0,1,.017.074.994.994,0,0,1-.01.132,1.262,1.262,0,0,1-.029.147.852.852,0,0,1-.047.137.3.3,0,0,1-.066.1.436.436,0,0,1-.148.081,1.993,1.993,0,0,1-.26.074,3.46,3.46,0,0,1-.724.078,2.116,2.116,0,0,1-.564-.068,1.041,1.041,0,0,1-.4-.205.85.85,0,0,1-.243-.353,1.434,1.434,0,0,1-.081-.507,3.016,3.016,0,0,1,.042-.484,2.677,2.677,0,0,1,.137-.508,2.5,2.5,0,0,1,.243-.481,1.749,1.749,0,0,1,.359-.4,1.7,1.7,0,0,1,.487-.278,1.764,1.764,0,0,1,.63-.1,1.7,1.7,0,0,1,.527.072,1.082,1.082,0,0,1,.362.192.765.765,0,0,1,.21.273A.757.757,0,0,1,371.857,664.239Zm-.832.064a.28.28,0,0,0-.106-.224.468.468,0,0,0-.308-.089.714.714,0,0,0-.3.061.781.781,0,0,0-.234.163,1.015,1.015,0,0,0-.173.243,1.542,1.542,0,0,0-.117.3h.283a2.489,2.489,0,0,0,.452-.035,1.035,1.035,0,0,0,.293-.1.418.418,0,0,0,.162-.143A.337.337,0,0,0,371.025,664.3Z" transform="translate(-368.791 -662.338)"/>
    <path id="Path_216" data-name="Path 216" d="M376.281,668.529a1.275,1.275,0,0,1-.1.5,1.619,1.619,0,0,1-.3.462l-.58.647a.336.336,0,0,1-.157.1.969.969,0,0,1-.265.029,1,1,0,0,1-.157-.01.192.192,0,0,1-.082-.029.049.049,0,0,1-.017-.052.314.314,0,0,1,.034-.084l.593-.93.1-.5a.706.706,0,0,1,.061-.186.274.274,0,0,1,.1-.107.367.367,0,0,1,.147-.049,1.7,1.7,0,0,1,.216-.011,1.475,1.475,0,0,1,.2.011.333.333,0,0,1,.127.04.155.155,0,0,1,.064.073A.264.264,0,0,1,376.281,668.529Z" transform="translate(-371.847 -664.914)"/>
    <path id="Path_217" data-name="Path 217" d="M386.3,661.312c0,.014,0,.037,0,.071s-.009.071-.015.113-.016.085-.027.129a.7.7,0,0,1-.042.123.334.334,0,0,1-.061.093.106.106,0,0,1-.076.037h-1.557l-.216,1.065h1.321a.072.072,0,0,1,.068.034.187.187,0,0,1,.02.094c0,.016,0,.04,0,.072s-.009.069-.015.111-.016.084-.027.127a.72.72,0,0,1-.042.117.31.31,0,0,1-.059.088.1.1,0,0,1-.074.033h-1.317l-.249,1.23H385.5a.066.066,0,0,1,.061.036.211.211,0,0,1,.02.1c0,.016,0,.04,0,.074a.92.92,0,0,1-.015.113c-.008.042-.018.084-.029.127a.721.721,0,0,1-.042.119.317.317,0,0,1-.059.09.109.109,0,0,1-.078.033h-2.19a.3.3,0,0,1-.1-.015.159.159,0,0,1-.072-.05.2.2,0,0,1-.039-.088.338.338,0,0,1,0-.127l.761-3.8a.332.332,0,0,1,.121-.214.34.34,0,0,1,.2-.066h2.169C386.269,661.184,386.3,661.227,386.3,661.312Z" transform="translate(-376.211 -661.184)"/>
  </g>
  <g id="Group_132" data-name="Group 132" transform="translate(151.837 52.355)">
    <path id="Path_218" data-name="Path 218" d="M392.984,663.617a.478.478,0,0,1-.01.091.827.827,0,0,1-.03.114q-.124.364-.276.73t-.334.723q-.182.357-.393.7a7.417,7.417,0,0,1-.456.664.27.27,0,0,1-.081.076.375.375,0,0,1-.115.044.893.893,0,0,1-.158.019c-.061,0-.132,0-.212,0-.124,0-.221,0-.294-.009a.665.665,0,0,1-.165-.028.138.138,0,0,1-.078-.056.2.2,0,0,1-.024-.089l-.354-2.7c0-.036,0-.069-.007-.1s0-.06,0-.087a.277.277,0,0,1,.015-.1.12.12,0,0,1,.061-.057.454.454,0,0,1,.131-.032,2.226,2.226,0,0,1,.231-.01c.09,0,.16,0,.212.007a.435.435,0,0,1,.119.023.1.1,0,0,1,.056.046.2.2,0,0,1,.017.069l.256,2.207v.084l.017-.03q.172-.26.312-.522t.259-.539q.12-.276.224-.573c.069-.2.138-.406.206-.627a.141.141,0,0,1,.037-.071.2.2,0,0,1,.082-.044.682.682,0,0,1,.142-.023c.057,0,.129-.007.214-.007s.151,0,.2.007a.571.571,0,0,1,.121.02.113.113,0,0,1,.057.034A.082.082,0,0,1,392.984,663.617Z" transform="translate(-389.996 -663.449)"/>
    <path id="Path_219" data-name="Path 219" d="M399.5,664.239a.872.872,0,0,1-.109.436.931.931,0,0,1-.34.333,1.855,1.855,0,0,1-.586.214,4.164,4.164,0,0,1-.848.075h-.31c-.009.051-.016.1-.02.153s-.007.1-.007.14a.547.547,0,0,0,.142.411.634.634,0,0,0,.455.138,2.253,2.253,0,0,0,.4-.031,3.039,3.039,0,0,0,.31-.071c.089-.025.162-.049.221-.07a.427.427,0,0,1,.128-.032.066.066,0,0,1,.058.024.131.131,0,0,1,.017.074.992.992,0,0,1-.01.132,1.255,1.255,0,0,1-.029.147.855.855,0,0,1-.047.137.29.29,0,0,1-.066.1.445.445,0,0,1-.148.081,1.986,1.986,0,0,1-.259.074,3.469,3.469,0,0,1-.724.078,2.113,2.113,0,0,1-.564-.068,1.043,1.043,0,0,1-.4-.205.859.859,0,0,1-.243-.353,1.435,1.435,0,0,1-.081-.507,3.019,3.019,0,0,1,.042-.484,2.676,2.676,0,0,1,.136-.508,2.558,2.558,0,0,1,.243-.481,1.762,1.762,0,0,1,.359-.4,1.692,1.692,0,0,1,.487-.278,1.761,1.761,0,0,1,.63-.1,1.7,1.7,0,0,1,.527.072,1.082,1.082,0,0,1,.362.192.766.766,0,0,1,.211.273A.756.756,0,0,1,399.5,664.239Zm-.832.064a.28.28,0,0,0-.106-.224.466.466,0,0,0-.308-.089.711.711,0,0,0-.3.061.769.769,0,0,0-.234.163,1.019,1.019,0,0,0-.174.243,1.512,1.512,0,0,0-.116.3h.283a2.486,2.486,0,0,0,.451-.035,1.044,1.044,0,0,0,.294-.1.417.417,0,0,0,.161-.143A.333.333,0,0,0,398.672,664.3Z" transform="translate(-393.372 -663.386)"/>
    <path id="Path_220" data-name="Path 220" d="M405.918,663.531c0,.016,0,.043-.007.084s-.011.088-.02.142-.02.109-.033.167-.029.11-.046.16a.514.514,0,0,1-.057.121.087.087,0,0,1-.069.047.172.172,0,0,1-.061-.011c-.02-.008-.043-.016-.068-.024l-.081-.023a.4.4,0,0,0-.1-.012.44.44,0,0,0-.244.088,1.185,1.185,0,0,0-.248.231,1.68,1.68,0,0,0-.21.334,1.588,1.588,0,0,0-.133.4l-.27,1.352a.119.119,0,0,1-.032.059.2.2,0,0,1-.078.042.683.683,0,0,1-.137.025,2.056,2.056,0,0,1-.206.009,1.934,1.934,0,0,1-.2-.009.531.531,0,0,1-.125-.025.1.1,0,0,1-.059-.042.084.084,0,0,1-.007-.059l.6-3.009a.119.119,0,0,1,.03-.059.167.167,0,0,1,.069-.04.617.617,0,0,1,.118-.023,1.484,1.484,0,0,1,.173-.009,1.348,1.348,0,0,1,.17.009.44.44,0,0,1,.1.023.089.089,0,0,1,.049.04.094.094,0,0,1,0,.059l-.094.479a1.53,1.53,0,0,1,.187-.266,1.473,1.473,0,0,1,.226-.211,1.073,1.073,0,0,1,.248-.14.689.689,0,0,1,.253-.05.746.746,0,0,1,.1.007.9.9,0,0,1,.1.017.47.47,0,0,1,.081.025.245.245,0,0,1,.056.032A.088.088,0,0,1,405.918,663.531Z" transform="translate(-397.033 -663.386)"/>
  </g>
  <g id="Group_133" data-name="Group 133" transform="translate(160.636 50.987)">
    <path id="Path_221" data-name="Path 221" d="M411.778,663.631a.59.59,0,0,1-.01.1.829.829,0,0,1-.03.111q-.115.311-.248.641t-.3.681q-.172.35-.391.724t-.5.775l-.822,1.166a.256.256,0,0,1-.076.072.4.4,0,0,1-.115.047,1.08,1.08,0,0,1-.167.029c-.065.006-.141.01-.226.01a1.889,1.889,0,0,1-.234-.012.322.322,0,0,1-.13-.038.073.073,0,0,1-.037-.068.2.2,0,0,1,.048-.1l.765-1.007-.5-2.891c0-.029-.009-.06-.013-.091a.555.555,0,0,1-.007-.081.188.188,0,0,1,.022-.1.138.138,0,0,1,.074-.058.529.529,0,0,1,.139-.028c.059-.006.129-.009.212-.009s.165,0,.217.005a.394.394,0,0,1,.119.022.1.1,0,0,1,.056.05.311.311,0,0,1,.022.084l.31,2.106h.007c.112-.169.215-.339.306-.513s.177-.349.253-.527.147-.359.211-.542.123-.368.177-.554a.119.119,0,0,1,.03-.059.171.171,0,0,1,.079-.04.923.923,0,0,1,.147-.023c.061-.006.139-.009.236-.009a1.1,1.1,0,0,1,.3.027A.1.1,0,0,1,411.778,663.631Z" transform="translate(-408.486 -662.081)"/>
    <path id="Path_222" data-name="Path 222" d="M418.314,665.08a.137.137,0,0,1-.106.1,1.036,1.036,0,0,1-.3.031,1.673,1.673,0,0,1-.17-.007.441.441,0,0,1-.106-.022.088.088,0,0,1-.052-.041.1.1,0,0,1-.005-.062l.091-.482a.883.883,0,0,1-.162.227,1.4,1.4,0,0,1-.262.219,1.5,1.5,0,0,1-.336.162,1.174,1.174,0,0,1-.379.062,1.032,1.032,0,0,1-.336-.049.776.776,0,0,1-.246-.133.74.74,0,0,1-.17-.2,1.18,1.18,0,0,1-.108-.243,1.438,1.438,0,0,1-.057-.265,2.15,2.15,0,0,1-.017-.268,3,3,0,0,1,.04-.47,2.94,2.94,0,0,1,.127-.5,2.759,2.759,0,0,1,.217-.477,1.784,1.784,0,0,1,.315-.4,1.451,1.451,0,0,1,.421-.279,1.309,1.309,0,0,1,.534-.1,1.075,1.075,0,0,1,.251.029,1.054,1.054,0,0,1,.219.078.933.933,0,0,1,.319.258l.32-1.587a.127.127,0,0,1,.03-.061.176.176,0,0,1,.076-.046.68.68,0,0,1,.135-.029,1.77,1.77,0,0,1,.207-.01,1.678,1.678,0,0,1,.2.01.5.5,0,0,1,.123.029.1.1,0,0,1,.057.046.093.093,0,0,1,.007.061Zm-.421-2.105a.91.91,0,0,0-.261-.28.587.587,0,0,0-.332-.095.509.509,0,0,0-.255.066.772.772,0,0,0-.209.175,1.169,1.169,0,0,0-.162.256,1.992,1.992,0,0,0-.114.309,2.522,2.522,0,0,0-.069.324,2.06,2.06,0,0,0-.024.306.716.716,0,0,0,.084.386.3.3,0,0,0,.266.129.607.607,0,0,0,.3-.089,1.181,1.181,0,0,0,.289-.239,1.605,1.605,0,0,0,.238-.354,1.731,1.731,0,0,0,.15-.436Z" transform="translate(-412.212 -660.512)"/>
    <path id="Path_223" data-name="Path 223" d="M425.964,666.587a.137.137,0,0,1-.106.1,1.036,1.036,0,0,1-.3.031,1.652,1.652,0,0,1-.17-.007.439.439,0,0,1-.106-.022.088.088,0,0,1-.052-.04.1.1,0,0,1-.005-.062l.095-.482a.909.909,0,0,1-.162.227,1.357,1.357,0,0,1-.263.217,1.577,1.577,0,0,1-.336.162,1.14,1.14,0,0,1-.379.064.953.953,0,0,1-.448-.094.781.781,0,0,1-.286-.255,1.056,1.056,0,0,1-.153-.365,1.981,1.981,0,0,1-.045-.431,2.965,2.965,0,0,1,.04-.464,3.138,3.138,0,0,1,.125-.5,2.685,2.685,0,0,1,.216-.48,1.809,1.809,0,0,1,.315-.41,1.451,1.451,0,0,1,.422-.285,1.3,1.3,0,0,1,.537-.106,1.033,1.033,0,0,1,.5.116,1.133,1.133,0,0,1,.377.339l.054-.266a.138.138,0,0,1,.106-.1,1.036,1.036,0,0,1,.3-.03,1.352,1.352,0,0,1,.168.009.479.479,0,0,1,.107.023.1.1,0,0,1,.052.04.088.088,0,0,1,.007.059Zm-.418-2.109a.892.892,0,0,0-.261-.278.6.6,0,0,0-.332-.093.51.51,0,0,0-.259.068.741.741,0,0,0-.209.18,1.257,1.257,0,0,0-.16.261,2.01,2.01,0,0,0-.115.308,2.282,2.282,0,0,0-.068.324,2.336,2.336,0,0,0-.022.3,1.182,1.182,0,0,0,.015.192.475.475,0,0,0,.056.162.3.3,0,0,0,.279.155.605.605,0,0,0,.3-.089,1.146,1.146,0,0,0,.289-.243,1.7,1.7,0,0,0,.238-.357,1.731,1.731,0,0,0,.15-.436Z" transform="translate(-416.223 -662.018)"/>
    <path id="Path_224" data-name="Path 224" d="M433.9,663.631a.587.587,0,0,1-.01.1.824.824,0,0,1-.03.111q-.115.311-.248.641t-.3.681q-.172.35-.391.724t-.5.775l-.822,1.166a.256.256,0,0,1-.076.072.4.4,0,0,1-.115.047,1.08,1.08,0,0,1-.167.029c-.065.006-.141.01-.226.01a1.889,1.889,0,0,1-.234-.012.322.322,0,0,1-.13-.038.073.073,0,0,1-.037-.068.2.2,0,0,1,.048-.1l.765-1.007-.5-2.891c0-.029-.009-.06-.013-.091a.555.555,0,0,1-.007-.081.189.189,0,0,1,.022-.1.138.138,0,0,1,.074-.058.529.529,0,0,1,.139-.028c.059-.006.129-.009.212-.009s.165,0,.217.005a.394.394,0,0,1,.119.022.1.1,0,0,1,.056.05.31.31,0,0,1,.022.084l.31,2.106h.007c.112-.169.215-.339.306-.513s.177-.349.253-.527.147-.359.211-.542.123-.368.177-.554a.119.119,0,0,1,.03-.059.171.171,0,0,1,.079-.04.922.922,0,0,1,.147-.023c.061-.006.139-.009.236-.009a1.1,1.1,0,0,1,.3.027A.1.1,0,0,1,433.9,663.631Z" transform="translate(-420.082 -662.081)"/>
  </g>
  <g id="Group_134" data-name="Group 134" transform="translate(174.907 50.95)">
    <path id="Path_225" data-name="Path 225" d="M440.039,660.663a1.276,1.276,0,0,1-.1.484,1.666,1.666,0,0,1-.286.453l-.553.643a.31.31,0,0,1-.143.1.791.791,0,0,1-.241.029,1.037,1.037,0,0,1-.145-.009.138.138,0,0,1-.076-.03.056.056,0,0,1-.015-.054.344.344,0,0,1,.034-.083l.58-.917.1-.492a.711.711,0,0,1,.054-.184.268.268,0,0,1,.09-.106.331.331,0,0,1,.137-.049,1.448,1.448,0,0,1,.2-.011,1.219,1.219,0,0,1,.184.011.288.288,0,0,1,.114.04.142.142,0,0,1,.057.071A.3.3,0,0,1,440.039,660.663Zm1.324,0a1.356,1.356,0,0,1-.106.484,1.636,1.636,0,0,1-.285.453l-.549.643a.336.336,0,0,1-.147.1.794.794,0,0,1-.241.029,1.006,1.006,0,0,1-.141-.009.146.146,0,0,1-.078-.03.053.053,0,0,1-.017-.054.286.286,0,0,1,.037-.083l.58-.917.1-.492a.71.71,0,0,1,.054-.184.263.263,0,0,1,.089-.106.33.33,0,0,1,.136-.049,1.454,1.454,0,0,1,.2-.011,1.237,1.237,0,0,1,.187.011.273.273,0,0,1,.113.04.145.145,0,0,1,.056.071A.314.314,0,0,1,441.363,660.663Z" transform="translate(-438.474 -660.434)"/>
  </g>
</svg>
