<svg id="logo-enviro-status" xmlns="http://www.w3.org/2000/svg" width="158.33" height="63" viewBox="0 0 158.33 63">
  <path id="Path_113" data-name="Path 113" d="M424.929,329.037h-2.416a1.961,1.961,0,0,0-.475-1.545,2.606,2.606,0,0,0-1.644-.4H419.7a3.579,3.579,0,0,1-.386.02,4.023,4.023,0,0,0-.406.02,4.154,4.154,0,0,0-.634.089,1.8,1.8,0,0,0-.554.2.97.97,0,0,0-.357.409,2.5,2.5,0,0,0-.178.548c0,.079,0,.155-.01.228s-.01.138-.01.2a1.851,1.851,0,0,0,.386,1.356,2.269,2.269,0,0,0,1.416.426,1.748,1.748,0,0,1,.188.01,1.622,1.622,0,0,0,.188.01q.258.02.505.03c.165.007.327.01.485.01a12.25,12.25,0,0,1,3.426.545q1.485.485,1.485,3.119a6.226,6.226,0,0,1-.535,2.763,2.841,2.841,0,0,1-2.476,1.277q-.316.019-.624.03t-.6.03c-.211.013-.419.019-.624.019h-.624a11.4,11.4,0,0,1-3.713-.5q-1.436-.505-1.436-3.238v-.129a.417.417,0,0,1,.02-.129v-.258l2.4-.02a4.481,4.481,0,0,0,.248,1.585q.247.654,1.356.673.476.019.951.02h.951a3.222,3.222,0,0,0,1.7-.346q.535-.347.535-1.555,0-1.307-.683-1.545a5.763,5.763,0,0,0-1.753-.258h-.4q-.2,0-.416-.02c-.066,0-.135,0-.208-.01a2.02,2.02,0,0,1-.208-.029,9.169,9.169,0,0,1-3.278-.7q-1.178-.564-1.179-3.179a4,4,0,0,1,.713-2.555,3.312,3.312,0,0,1,2.436-1.03q.515-.04,1.04-.06t1.04-.02a12.83,12.83,0,0,1,3.546.436q1.505.436,1.505,2.971Z" transform="translate(-338.589 -288.429)"/>
  <path id="Path_114" data-name="Path 114" d="M443.655,327.453v10.972H441.1V327.453h-3.822v-2.238h10.259v2.238Z" transform="translate(-350.006 -288.469)"/>
  <path id="Path_115" data-name="Path 115" d="M466.5,334.009l-2.3-6.853-2.258,6.853Zm.574,1.881h-5.724l-.812,2.535h-2.634l4.4-13.21h3.724l4.476,13.21h-2.575Z" transform="translate(-360.399 -288.469)"/>
  <path id="Path_116" data-name="Path 116" d="M489.627,327.453v10.972h-2.555V327.453H483.25v-2.238h10.259v2.238Z" transform="translate(-373.163 -288.469)"/>
  <path id="Path_117" data-name="Path 117" d="M514.853,325.255h2.5v8.793a5.783,5.783,0,0,1-.762,3.258q-.762,1.119-3.14,1.2-.178,0-.356.01c-.119.007-.238.01-.356.01a3.731,3.731,0,0,1-.376.02H512a11.089,11.089,0,0,1-4.119-.614q-1.486-.614-1.485-3.723v-8.952h2.535v8.932q0,1.446.6,1.842a3.572,3.572,0,0,0,1.911.4l.871-.02a4.154,4.154,0,0,0,1.891-.307q.644-.327.644-1.673v-9.17Z" transform="translate(-384.822 -288.49)"/>
  <path id="Path_118" data-name="Path 118" d="M542.334,329.037h-2.416a1.96,1.96,0,0,0-.475-1.545,2.607,2.607,0,0,0-1.644-.4h-.693a3.586,3.586,0,0,1-.386.02,4.016,4.016,0,0,0-.406.02,4.146,4.146,0,0,0-.634.089,1.81,1.81,0,0,0-.555.2.973.973,0,0,0-.356.409,2.5,2.5,0,0,0-.178.548c0,.079,0,.155-.01.228s-.01.138-.01.2a1.849,1.849,0,0,0,.386,1.356,2.267,2.267,0,0,0,1.416.426,1.74,1.74,0,0,1,.188.01,1.632,1.632,0,0,0,.189.01c.171.013.34.023.5.03s.327.01.485.01a12.256,12.256,0,0,1,3.426.545q1.485.485,1.485,3.119a6.219,6.219,0,0,1-.535,2.763,2.841,2.841,0,0,1-2.476,1.277q-.317.019-.624.03t-.6.03q-.317.019-.624.019h-.624a11.406,11.406,0,0,1-3.714-.5q-1.436-.505-1.436-3.238v-.129a.4.4,0,0,1,.02-.129v-.258l2.4-.02a4.493,4.493,0,0,0,.248,1.585q.248.654,1.357.673.475.019.95.02h.951a3.224,3.224,0,0,0,1.7-.346q.535-.347.534-1.555,0-1.307-.683-1.545a5.763,5.763,0,0,0-1.753-.258h-.4c-.132,0-.271-.006-.416-.02-.066,0-.135,0-.208-.01a2.017,2.017,0,0,1-.208-.029,9.175,9.175,0,0,1-3.278-.7q-1.178-.564-1.178-3.179a4.007,4.007,0,0,1,.713-2.555,3.313,3.313,0,0,1,2.436-1.03q.515-.04,1.04-.06t1.04-.02a12.826,12.826,0,0,1,3.545.436q1.505.436,1.505,2.971Z" transform="translate(-397.727 -288.429)"/>
  <path id="Path_119" data-name="Path 119" d="M567.85,328.179a.141.141,0,0,1-.023.078h0a.12.12,0,0,1-.035.034.156.156,0,0,1-.039.019h0a.267.267,0,0,1-.037.01h0l-.039.008h-.035c-.025,0-.052,0-.079,0h-.008l-.055,0h-.008l-.039,0h0l-.042-.007a.268.268,0,0,1-.038-.011.171.171,0,0,1-.038-.019h0a.121.121,0,0,1-.034-.034l0-.005h0v0l0,0,0-.005,0,0v0a.145.145,0,0,1-.009-.051v-2.445l-1.013,2.486h0a.2.2,0,0,1-.017.03h0a.2.2,0,0,1-.023.027h0l0,0,0,0,0,0,0,0h0a.236.236,0,0,1-.047.023h0l-.036.009-.041.006h-.094a.822.822,0,0,1-.1-.006h0l-.041-.007h0l-.034-.009,0,0h0l-.006,0,0,0-.006,0h0a.2.2,0,0,1-.04-.025l0,0a.156.156,0,0,1-.023-.028h0a.116.116,0,0,1-.014-.03h0l-.959-2.462v2.422a.14.14,0,0,1-.023.078.123.123,0,0,1-.035.035.18.18,0,0,1-.038.019h0a.288.288,0,0,1-.038.011l-.042.007h-.034c-.025,0-.052,0-.08,0h-.008l-.056,0h-.015l-.033,0h0l-.04-.007-.038-.01h0a.166.166,0,0,1-.037-.02.119.119,0,0,1-.034-.038l0,0v-.005l0,0,0-.005,0,0,0,0a.158.158,0,0,1-.007-.048v-2.985a.346.346,0,0,1,.018-.116h0a.2.2,0,0,1,.063-.092h0l0,0a.326.326,0,0,1,.037-.025h0a.226.226,0,0,1,.04-.019h0a.256.256,0,0,1,.091-.016h.266a.671.671,0,0,1,.081,0h.012a.573.573,0,0,1,.059.011h.005l.016,0h0l.016.005h0a.362.362,0,0,1,.089.046h0a.364.364,0,0,1,.053.048h0a.365.365,0,0,1,.043.058l0,0h0l.008.015v0l.008.015h0a.611.611,0,0,1,.039.095l.876,2.188.912-2.184.007-.019v0l.008-.019h0a.7.7,0,0,1,.049-.1l0,0h0l.009-.014,0,0,.009-.013h0a.387.387,0,0,1,.064-.068h0a.319.319,0,0,1,.054-.036h0a.321.321,0,0,1,.059-.024.476.476,0,0,1,.064-.013h0a.608.608,0,0,1,.069,0h.273a.384.384,0,0,1,.048,0h0a.318.318,0,0,1,.048.012h0a.239.239,0,0,1,.047.021.262.262,0,0,1,.039.03l0,0a.241.241,0,0,1,.031.039h0a.251.251,0,0,1,.024.046.344.344,0,0,1,.016.056h0a.4.4,0,0,1,0,.061Zm-4-2.995c0,.016,0,.033,0,.049s0,.032,0,.045a.374.374,0,0,1-.008.041h0a.2.2,0,0,1-.016.039h0v0l0,.005,0,0,0,.005v0a.15.15,0,0,1-.04.039l0,0a.132.132,0,0,1-.036.016h0a.152.152,0,0,1-.04.005h-.835v2.737h0a.14.14,0,0,1-.023.078h0a.125.125,0,0,1-.034.034.178.178,0,0,1-.039.019h0l-.038.01-.041.007h0a.483.483,0,0,1-.053.005h-.071l-.057,0h-.008l-.04,0h0l-.043-.007a.291.291,0,0,1-.04-.011h0a.155.155,0,0,1-.039-.019.125.125,0,0,1-.034-.034h0l0-.005,0,0,0-.005,0,0,0,0a.15.15,0,0,1-.01-.053h0v-2.737h-.835a.146.146,0,0,1-.077-.022h0a.155.155,0,0,1-.033-.029.181.181,0,0,1-.022-.036v0h0l0-.006v0l0-.007h0a.346.346,0,0,1-.013-.053h0a.432.432,0,0,1-.005-.046h0c0-.016,0-.032,0-.049s0-.033,0-.049h0a.466.466,0,0,1,.005-.047h0v0h0l0-.009v0l0-.009v0a.294.294,0,0,1,.015-.049h0a.153.153,0,0,1,.022-.037h0a.127.127,0,0,1,.034-.029h0a.172.172,0,0,1,.036-.016h0a.148.148,0,0,1,.04-.005h2.256a.142.142,0,0,1,.077.022h0a.168.168,0,0,1,.031.027h0a.174.174,0,0,1,.022.034h0a.184.184,0,0,1,.016.041h0a.424.424,0,0,1,.008.043h0v.02h0v.011h0C563.852,325.142,563.853,325.163,563.853,325.184Z" transform="translate(-412.462 -288.321)"/>
  <path id="Path_120" data-name="Path 120" d="M423.215,290.556a4.564,4.564,0,0,0-.6-2.826q-.6-.682-2.81-.682a4.323,4.323,0,0,0-2.566.547,3.351,3.351,0,0,0-.747,2.479v.222a.291.291,0,0,0-.032.13v.13Zm-.065,4.353h3.574a1.6,1.6,0,0,1,.032.309v.308q0,3.086-2.063,3.752a14.909,14.909,0,0,1-4.6.666q-4.808,0-6.042-1.8t-1.234-6.254q0-4,1.3-5.734t5.555-1.738q4.256,0,5.669,1.527t1.413,5.783l-.032,1.072h-10.3a8.746,8.746,0,0,0,.5,3.492q.5,1.056,3.232,1.056a5.691,5.691,0,0,0,2.063-.357q.925-.357.926-1.754Z" transform="translate(-337.687 -267.919)"/>
  <path id="Path_121" data-name="Path 121" d="M447.054,284.545H450.5l.032,2.339a5.27,5.27,0,0,1,1.982-1.965,6.077,6.077,0,0,1,2.794-.569,6.324,6.324,0,0,1,4.077,1.088q1.316,1.088,1.316,3.947v10.331h-3.606V290.36a4.529,4.529,0,0,0-.487-2.42q-.488-.73-2.372-.731a3.8,3.8,0,0,0-2.631.845,3.318,3.318,0,0,0-.942,2.6v9.064h-3.606Z" transform="translate(-354.931 -267.885)"/>
  <path id="Path_122" data-name="Path 122" d="M492.374,284.743l-4.386,15.171H482.5l-4.613-15.171h3.736l3.606,12.67,3.346-12.67Z" transform="translate(-370.461 -268.083)"/>
  <path id="Path_123" data-name="Path 123" d="M513.631,271.652V274.8h-3.606v-3.151Zm0,6.5V293.32h-3.606V278.149Z" transform="translate(-386.65 -261.489)"/>
  <path id="Path_124" data-name="Path 124" d="M524.163,284.545h3.476l-.065,2.014h.13a3.9,3.9,0,0,1,1.608-1.657,4.741,4.741,0,0,1,2.29-.552q2.534,0,3.362,1.365a6.96,6.96,0,0,1,.828,3.638v1.007h-3.346v-.682a5.089,5.089,0,0,0-.276-1.835q-.276-.7-1.738-.7a2.393,2.393,0,0,0-2.03.828,3.4,3.4,0,0,0-.634,2.128v.146a.322.322,0,0,0,.033.146v9.323h-3.639Z" transform="translate(-393.771 -267.885)"/>
  <path id="Path_125" data-name="Path 125" d="M555.359,291.92v1.04a10.178,10.178,0,0,0,.39,3.1q.39,1.186,2.7,1.186l.422-.033a3.551,3.551,0,0,0,.5.033,5.093,5.093,0,0,0,.568-.033,4.915,4.915,0,0,0,.958-.227,1.571,1.571,0,0,0,.764-.552,2.833,2.833,0,0,0,.455-1.1,8.974,8.974,0,0,0,.162-1.365,6.622,6.622,0,0,0,.033-.666v-2.5q0-.341-.033-.731a9.581,9.581,0,0,0-.211-1.3,1.991,1.991,0,0,0-.5-.975,1.713,1.713,0,0,0-.7-.422,2.818,2.818,0,0,0-.861-.13,2.165,2.165,0,0,0-.357-.033h-1.576a1.724,1.724,0,0,0-.341.033,3.054,3.054,0,0,0-.828.114,1.49,1.49,0,0,0-.666.373,1.653,1.653,0,0,0-.438.617,6.043,6.043,0,0,0-.244.715,1.277,1.277,0,0,0-.049.2,1.229,1.229,0,0,0-.016.2q-.033.325-.065.633a5.7,5.7,0,0,0-.033.6q-.032.325-.032.634v.6Zm-3.7-.39q0-4.061,1.4-5.588t5.523-1.527q4.321,0,5.847,1.4t1.527,5.847a16.006,16.006,0,0,1-.926,6.156q-.925,2.128-5.766,2.128-4.029,0-5.815-1.283t-1.787-5.636Z" transform="translate(-407.62 -267.919)"/>
  <path id="Path_126" data-name="Path 126" d="M269.281,251.175h47.091a7.872,7.872,0,0,1,7.849,7.848v47.691a7.483,7.483,0,0,1-7.461,7.461H268.893a7.483,7.483,0,0,1-7.461-7.461V259.023a7.872,7.872,0,0,1,7.849-7.848" transform="translate(-261.432 -251.175)" fill-rule="evenodd"/>
  <path id="Path_127" data-name="Path 127" d="M315.379,298.882c-2.886,5.681-3.54,2.828-5.93-1.009a69.785,69.785,0,0,0-6.155-8.089c-1.455-1.662-2.806-1.376-1.212.775a45.275,45.275,0,0,1,8.075,15.6c2.585,8.327-.233,12.673,0,17.2.254,2.385,7.657,1.6,6.9-.877-.781-3.512-2.807-10.416-2.542-14.106.11-1.531,1.439-4.667,1.922-6.472.751-2.807,1.525-4.787,2.38-7.251.393-1.131-.114-1.71-.93-.387-.918,1.488-1.713,3.061-2.5,4.617" transform="translate(-281.546 -270.083)" fill="#fff" fill-rule="evenodd"/>
  <path id="Path_128" data-name="Path 128" d="M318.746,288.8a1.658,1.658,0,1,1,.841,2.189,1.659,1.659,0,0,1-.841-2.189m-1.521-5.771a2.525,2.525,0,1,1-2.525,2.525A2.525,2.525,0,0,1,317.226,283.034Zm-5.175,3.277a1.546,1.546,0,1,1-1.546,1.546A1.546,1.546,0,0,1,312.05,286.311Zm1.718,3.622a2.158,2.158,0,1,1,1.094,2.85A2.158,2.158,0,0,1,313.769,289.933Zm4.072,3.061a1.208,1.208,0,1,1-.268,1.687A1.208,1.208,0,0,1,317.84,292.994Z" transform="translate(-286.15 -267.223)" fill="#d80000" fill-rule="evenodd"/>
  <path id="Path_129" data-name="Path 129" d="M289.259,283.634a2.551,2.551,0,1,1,2.8,2.271,2.551,2.551,0,0,1-2.8-2.271m26.015,3.3a2.225,2.225,0,1,1-2.226,2.225A2.225,2.225,0,0,1,315.274,286.937Zm-12.22-13.207a1.546,1.546,0,1,1-1.546,1.546A1.546,1.546,0,0,1,303.054,273.73Zm-7.532,12.344a2.716,2.716,0,1,1-2.716,2.716A2.716,2.716,0,0,1,295.522,286.074Zm21.641-6.2a3.316,3.316,0,1,1-1.214-4.53A3.316,3.316,0,0,1,317.163,279.871Zm-16.882-4.51a2.32,2.32,0,1,1-3.17-.849A2.32,2.32,0,0,1,300.281,275.362Zm7.633-4.077a2.426,2.426,0,1,1-2.426,2.426A2.426,2.426,0,0,1,307.914,271.285Zm8.25,11.489a2.869,2.869,0,1,1,1.454,3.788A2.869,2.869,0,0,1,316.164,282.774Z" transform="translate(-275.441 -261.305)" fill="#a7ce45" fill-rule="evenodd"/>
  <path id="Path_130" data-name="Path 130" d="M293.846,290.053a1.658,1.658,0,1,1,2.316.367,1.658,1.658,0,0,1-2.316-.367m-13.183-9.22a1.658,1.658,0,1,1,2.316.367A1.659,1.659,0,0,1,280.663,280.833Zm8.5-11.849a1.658,1.658,0,1,1,2.316.367A1.658,1.658,0,0,1,289.167,268.984Zm32.478,14.232a2.157,2.157,0,1,0-3.013.477A2.157,2.157,0,0,0,321.645,283.216Zm-14-17.995a1.546,1.546,0,1,1-1.546,1.546A1.546,1.546,0,0,1,307.641,265.221Zm-25.548,17.745a2.428,2.428,0,1,1,.889,3.317A2.428,2.428,0,0,1,282.094,282.966ZM317.3,268.483a2.32,2.32,0,1,1-3.17-.849A2.32,2.32,0,0,1,317.3,268.483Zm-5.957,19.585a1.208,1.208,0,1,1-.268,1.688A1.208,1.208,0,0,1,311.345,288.068Zm-1.08-20.412a1.208,1.208,0,1,1-.267,1.688A1.209,1.209,0,0,1,310.264,267.656Zm-6.99-4.606a1.711,1.711,0,1,1-.378,2.389A1.71,1.71,0,0,1,303.274,263.05Zm-7.512,2.977a1.56,1.56,0,1,1-1.56,1.56A1.56,1.56,0,0,1,295.762,266.028Zm23.841,8.929a1.859,1.859,0,1,1-1.859,1.86A1.859,1.859,0,0,1,319.6,274.956Zm-3.868-2.439a1.546,1.546,0,1,1-1.546,1.546A1.546,1.546,0,0,1,315.735,272.518Zm-28.191,14.061a1.171,1.171,0,1,1-1.172,1.171A1.171,1.171,0,0,1,287.544,286.579Zm.652-15.826a2,2,0,1,1-2,2A2,2,0,0,1,288.2,270.752Zm-4.853,2.344a1.546,1.546,0,1,1-1.546,1.546A1.546,1.546,0,0,1,283.343,273.1Zm32.615,10.786a1.711,1.711,0,1,0,1.711,1.711A1.711,1.711,0,0,0,315.958,283.882Zm-25.736,4.184a1.171,1.171,0,1,1-1.172,1.171A1.171,1.171,0,0,1,290.222,288.067Zm9.119-22.556a1.208,1.208,0,1,1-.268,1.688A1.209,1.209,0,0,1,299.341,265.51Z" transform="translate(-270.959 -256.992)" fill="#0098d8" fill-rule="evenodd"/>
</svg>
