<svg id="logo-equipment-status" xmlns="http://www.w3.org/2000/svg" width="215.83" height="66.105" viewBox="0 0 215.83 66.105">
  <path id="Path_131" data-name="Path 131" d="M78.907,574.392h49.412a8.259,8.259,0,0,1,8.235,8.236v48.978H70.671V582.628a8.26,8.26,0,0,1,8.236-8.236" transform="translate(-70.671 -574.392)" fill="#fa9a13" fill-rule="evenodd"/>
  <path id="Path_132" data-name="Path 132" d="M125.631,603.81h-1.066v3.628H126.7V603.81Zm0-3.451H124.55v2.816H126.7v-2.816Zm-2.688,4.423h-1.1v2.656h2.243v-2.656Zm0-3.579h-1.1v2.927h2.179V601.2Zm-2.18,3.579h-.572l.572.478.588.475c-.015-.318-.015-.635-.015-.953Zm0-3.564-.508.017c-.3.332-.605.652-.908.984l.574,1.91h1.447v-2.912Zm-4.724-2.036s-.049-.27-.685-.318v3.786a6.672,6.672,0,0,0,.874-.049C118.084,602.338,116.384,600.16,116.038,599.182Zm-4.472-.349v3.818h3.357v-3.818Zm-2.688.445c-1,.6-1.257,1.844-1.622,3.468H110.5v-3.882A3.227,3.227,0,0,0,108.878,599.278Zm20.445,20.648c.3,1.893,3.038,10.642.635,6.3h-6.936l-.239-.047a12.5,12.5,0,0,1-24.772-2.387,12.326,12.326,0,0,1,.382-3.07l-2.29.318-1.13,5.919a1.525,1.525,0,0,1-1.511,1.192H89.245s-.557.159-.955-1.113c-.414-1.29-1.447-6.316-1.447-6.316v-4.948H84.854c.254,2.228.525,4.47.8,6.7.27.461.524.906.795,1.369v.954h-.478c.478.35.6.6,1.08.938v1.209l-.524-.142s-.382,1.055-1.258.658a.942.942,0,0,1-.652-1.13c-.015-.4-.047-.795-.079-1.194-.175-.032-.366-.047-.556-.079a12.242,12.242,0,0,0-.16-3.2c-.317-1.829-1.844-6.322-1.844-6.322H79.969a12.5,12.5,0,0,1-9.3,20.76V596.844h30.458c1.56-2.434,4.519-2.99,7.749-2.99,2.91,0,5.8.51,8.7.51l1.192-1.433h.812c0,2.558.433,2.5-2.062,2.656l-8.646.526a9.221,9.221,0,0,0-.946.259,4.82,4.82,0,0,0-3.127,2.778c-.861,2.134-1.323,3.15-1.569,3.963-.253.837-.792,3.253.3,3.625l4.313-9.021a1.869,1.869,0,0,1,1.034-.731,2.787,2.787,0,0,1,.557-.064h7.271a2.64,2.64,0,0,1,1.194,1.352,23.534,23.534,0,0,1,1.13,3.119l.955-.955h3.993s.08-.715.716-.715h2.4V608.5h.635v-.875a.713.713,0,0,1,.716-.733.8.8,0,0,1,.876.891v12.138Z" transform="translate(-70.671 -584.256)" fill="#1a1818" fill-rule="evenodd"/>
  <path id="Path_133" data-name="Path 133" d="M128.725,697.9H78.5a7.852,7.852,0,0,1-7.829-7.829v-7.8h65.883v7.8a7.851,7.851,0,0,1-7.829,7.829" transform="translate(-70.671 -631.792)" fill="#1a1818" fill-rule="evenodd"/>
  <path id="Path_134" data-name="Path 134" d="M247.543,659.231h-2.306a2.551,2.551,0,0,1-.019-.255c-.053-.7-.209-1.139-.464-1.319a3.762,3.762,0,0,0-1.8-.268,4.946,4.946,0,0,0-2.194.311,1.408,1.408,0,0,0-.513,1.3c0,.784.14,1.254.42,1.413a9.663,9.663,0,0,0,2.77.364,7.227,7.227,0,0,1,3.6.794,3.281,3.281,0,0,1,.816,2.651q0,2.484-.959,3.206t-4.22.725q-2.936,0-3.9-.713c-.644-.473-.965-1.435-.965-2.879l-.006-.458h2.3l.009.265q0,1.307.454,1.6a6.054,6.054,0,0,0,2.49.292,3.83,3.83,0,0,0,2.023-.336q.439-.341.439-1.56a1.615,1.615,0,0,0-.333-1.2,2.565,2.565,0,0,0-1.435-.358l-1.3-.084q-2.955-.173-3.775-.818t-.822-2.783q0-2.18.99-2.9t3.952-.725a7.339,7.339,0,0,1,3.784.666,2.944,2.944,0,0,1,.974,2.6Z" transform="translate(-159.599 -617.545)" fill="#1a1818"/>
  <path id="Path_135" data-name="Path 135" d="M266.608,657.842v10.329h-2.362V657.842h-3.594v-2.116h9.675v2.116Z" transform="translate(-171.759 -617.669)" fill="#1a1818"/>
  <path id="Path_136" data-name="Path 136" d="M289.6,664.038l-2.153-6.479-2.113,6.479Zm.545,1.743h-5.368l-.775,2.39h-2.5l4.139-12.445h3.548l4.2,12.445h-2.452Z" transform="translate(-182.854 -617.669)" fill="#1a1818"/>
  <path id="Path_137" data-name="Path 137" d="M313.046,657.842v10.329h-2.362V657.842H307.09v-2.116h9.675v2.116Z" transform="translate(-196.468 -617.669)" fill="#1a1818"/>
  <path id="Path_138" data-name="Path 138" d="M338.337,655.726H340.7V664q0,2.6-1,3.436t-4.08.84q-3.253,0-4.266-.794t-1.012-3.345v-8.415H332.7v8.415q0,1.377.491,1.746a7.5,7.5,0,0,0,4.662,0c.32-.249.479-.862.479-1.833Z" transform="translate(-208.841 -617.669)" fill="#1a1818"/>
  <path id="Path_139" data-name="Path 139" d="M365.786,659.231H363.48c-.013-.115-.019-.2-.019-.255-.053-.7-.208-1.139-.464-1.319a3.761,3.761,0,0,0-1.8-.268A4.942,4.942,0,0,0,359,657.7a1.407,1.407,0,0,0-.514,1.3c0,.784.14,1.254.42,1.413a9.662,9.662,0,0,0,2.77.364,7.226,7.226,0,0,1,3.6.794,3.281,3.281,0,0,1,.816,2.651q0,2.484-.959,3.206t-4.22.725q-2.936,0-3.9-.713c-.644-.473-.965-1.435-.965-2.879l-.006-.458h2.3l.009.265q0,1.307.454,1.6a6.054,6.054,0,0,0,2.49.292,3.833,3.833,0,0,0,2.023-.336q.439-.341.438-1.56a1.615,1.615,0,0,0-.333-1.2,2.563,2.563,0,0,0-1.435-.358l-1.3-.084q-2.955-.173-3.775-.818t-.822-2.783q0-2.18.99-2.9t3.952-.725a7.338,7.338,0,0,1,3.784.666,2.944,2.944,0,0,1,.974,2.6Z" transform="translate(-222.515 -617.545)" fill="#1a1818"/>
  <path id="Path_140" data-name="Path 140" d="M373.985,608.246v2.609h-5.514v7.192q0,1.995,1.514,1.995,1.665,0,1.662-2.414v-.568h2.921v.721c0,.655-.021,1.223-.062,1.693q-.284,3.276-4.884,3.279-4.581,0-4.583-4.21v-7.688h-1.862v-2.609h1.862v-3.207h3.432v3.207Zm-25.524,0h3.4l-.133,2.414.072.016q1.005-2.593,4.5-2.593,5.079,0,5.079,4.737v9.754h-3.433V613.4l-.076-1q-.238-1.6-2.517-1.606-3.46,0-3.457,3.284v8.5h-3.433Zm-6.276,5.683-.015-.568a2.97,2.97,0,0,0-.593-2.22,4.283,4.283,0,0,0-2.567-.511,3.546,3.546,0,0,0-2.5.614,4.215,4.215,0,0,0-.578,2.685Zm-.03,4.061H345.6v.552q0,4.2-6.291,4.194-4.274,0-5.591-1.452t-1.319-6.159q0-4.182,1.381-5.621t5.376-1.437q3.836,0,5.14,1.4t1.3,5.509v1.049h-9.7c-.015.317-.026.527-.026.629a4.306,4.306,0,0,0,.65,2.814,3.556,3.556,0,0,0,2.6.706,4.793,4.793,0,0,0,2.455-.409A2.111,2.111,0,0,0,342.155,617.99Zm-34.3-9.744h3.432l-.092,2.2.077.015q1.051-2.386,4.379-2.383,3.882,0,4.317,2.65h.061q1-2.647,4.419-2.65,4.972,0,4.972,5v9.488h-3.433v-8.736q0-3.046-2.5-3.043-3.13,0-3.131,3.4v8.378h-3.432V613.7a3.962,3.962,0,0,0-.471-2.343,2.626,2.626,0,0,0-2-.562q-3.161,0-3.161,3.478v8.3h-3.432Zm-9.652,2.532q-1.964,0-2.563.885a7.6,7.6,0,0,0-.6,3.744,7.121,7.121,0,0,0,.644,3.7,3.045,3.045,0,0,0,2.619.915q2.01,0,2.609-.869a7.515,7.515,0,0,0,.6-3.734c0-1.954-.2-3.222-.608-3.79S299.6,610.777,298.2,610.777Zm-6.757-2.532h3.488l-.133,2.128.077.015q1.243-2.325,4.629-2.322,3.13,0,4.307,1.55t1.176,5.657q0,4.289-1.167,5.872t-4.332,1.59c-2.246,0-3.718-.747-4.4-2.245h-.061v4.856h-3.58Zm-3.371,0v14.327h-3.432V608.246Zm0-6.128v2.864h-3.432v-2.864Zm-6.91,6.128v14.327h-3.432l.194-2.46-.061-.01q-1,2.632-4.614,2.634-4.872,0-4.869-4.869v-9.621h3.432v8.8a3.861,3.861,0,0,0,.511,2.4,2.833,2.833,0,0,0,2.113.578q3.292,0,3.294-3.959v-7.821Zm-22.895,2.547a2.87,2.87,0,0,0-2.471.849,6.762,6.762,0,0,0-.6,3.5q0,3.191.562,4.046t2.655.854a2.982,2.982,0,0,0,2.542-.885,6.617,6.617,0,0,0,.635-3.524q0-3.054-.609-3.949T258.269,610.793Zm6.8-2.547v17.1h-3.432v-4.871l-.061-.015q-.944,2.294-4.4,2.291-3.161,0-4.307-1.6t-1.146-6c0-2.711.394-4.562,1.177-5.57s2.23-1.5,4.338-1.5q3.253,0,4.358,2.307l.092-.03-.046-2.113Zm-19.1,5.683-.015-.568a2.97,2.97,0,0,0-.593-2.22,4.283,4.283,0,0,0-2.567-.511,3.547,3.547,0,0,0-2.5.614,4.215,4.215,0,0,0-.578,2.685Zm-.03,4.061h3.448v.552q0,4.2-6.291,4.194-4.274,0-5.591-1.452t-1.319-6.159q0-4.182,1.381-5.621t5.376-1.437q3.836,0,5.14,1.4t1.3,5.509v1.049h-9.7c-.015.317-.026.527-.026.629a4.306,4.306,0,0,0,.65,2.814,3.556,3.556,0,0,0,2.6.706,4.793,4.793,0,0,0,2.455-.409A2.111,2.111,0,0,0,245.936,617.99Z" transform="translate(-158.739 -589.145)" fill="#1a1818"/>
  <path id="Path_141" data-name="Path 141" d="M390.689,658.244a.131.131,0,0,1-.022.073h0a.111.111,0,0,1-.033.032.146.146,0,0,1-.037.018h0l-.035.01h0l-.037.007h-.033a.749.749,0,0,1-.075,0h-.008l-.051,0h-.008l-.037,0h0l-.039-.007-.036-.01a.15.15,0,0,1-.036-.018h0a.113.113,0,0,1-.032-.032l0-.005h0v0l0,0,0-.006,0,0v0a.149.149,0,0,1-.008-.048v-2.3l-.955,2.344h0a.145.145,0,0,1-.015.029h0a.187.187,0,0,1-.022.025h0l0,0,0,0,0,0,0,0h0a.2.2,0,0,1-.044.021h0l-.034.008-.039.006h-.088a.806.806,0,0,1-.094-.006h0l-.039-.006h0l-.032-.008,0,0h0l-.006,0h0l-.006,0h0a.185.185,0,0,1-.037-.024l0,0a.132.132,0,0,1-.022-.026h0a.109.109,0,0,1-.014-.028h0l-.9-2.321v2.284a.131.131,0,0,1-.022.073.114.114,0,0,1-.033.033.169.169,0,0,1-.036.018h0l-.036.01-.039.007h-.032c-.023,0-.049,0-.076,0h-.008l-.053,0h-.014l-.031,0h0l-.038-.007-.036-.01h0a.156.156,0,0,1-.035-.019.112.112,0,0,1-.032-.036v-.007l0,0,0-.006v0l0,0a.148.148,0,0,1-.007-.045V655.43a.327.327,0,0,1,.017-.11h0a.2.2,0,0,1,.06-.087h0a.271.271,0,0,1,.035-.024h0a.286.286,0,0,1,.038-.018h0a.254.254,0,0,1,.086-.015h.251a.648.648,0,0,1,.076,0h.012a.537.537,0,0,1,.056.011h0l.015,0h0l.015,0h0a.357.357,0,0,1,.084.044h0a.338.338,0,0,1,.05.045h0a.335.335,0,0,1,.04.054v0h0l.007.014v0l.007.014h0a.58.58,0,0,1,.037.089l.826,2.063.86-2.059.007-.018v0l.008-.018h0a.657.657,0,0,1,.046-.091l0,0h0l.009-.014,0,0,.009-.013h0a.37.37,0,0,1,.061-.065h0a.262.262,0,0,1,.051-.034h0a.262.262,0,0,1,.055-.022.381.381,0,0,1,.06-.013h0a.561.561,0,0,1,.065,0h.257a.371.371,0,0,1,.045,0h0a.321.321,0,0,1,.045.011h0a.22.22,0,0,1,.044.02.25.25,0,0,1,.036.029h0a.231.231,0,0,1,.029.037h0a.241.241,0,0,1,.022.043.284.284,0,0,1,.015.052h0a.379.379,0,0,1,0,.058Zm-3.769-2.823c0,.015,0,.031,0,.046s0,.03,0,.042a.351.351,0,0,1-.008.039h0a.23.23,0,0,1-.015.037h0v0l0,.005,0,0,0,.005v0a.14.14,0,0,1-.038.036h0a.134.134,0,0,1-.035.015h0a.144.144,0,0,1-.037.005h-.787v2.58h0a.131.131,0,0,1-.022.073h0a.116.116,0,0,1-.032.032.162.162,0,0,1-.036.018h0l-.036.01-.039.007h0a.424.424,0,0,1-.05.005h-.067l-.053,0h-.008l-.038,0h0l-.04-.007a.275.275,0,0,1-.038-.01h0a.129.129,0,0,1-.036-.018.114.114,0,0,1-.032-.032h0l0,0,0,0,0-.005,0,0,0,0a.141.141,0,0,1-.009-.05h0v-2.58h-.787a.135.135,0,0,1-.073-.021h0a.162.162,0,0,1-.031-.028.16.16,0,0,1-.021-.033v0h0l0-.006v0l0-.007h0a.357.357,0,0,1-.013-.051h0a.394.394,0,0,1-.005-.043h0c0-.015,0-.03,0-.046s0-.031,0-.046h0a.426.426,0,0,1,.005-.044h0v0l0-.009v0l0-.009h0a.26.26,0,0,1,.014-.045h0a.143.143,0,0,1,.021-.035h0a.113.113,0,0,1,.032-.028h0a.143.143,0,0,1,.034-.015h0a.141.141,0,0,1,.037-.005h2.127a.137.137,0,0,1,.073.021h0a.145.145,0,0,1,.029.025h0a.165.165,0,0,1,.021.032h0a.172.172,0,0,1,.015.039h0a.361.361,0,0,1,.008.04h0v.019h0v.01h0C386.919,655.381,386.92,655.4,386.92,655.421Z" transform="translate(-237.65 -617.375)" fill="#1a1818"/>
</svg>
