<svg id="safety-critical" xmlns="http://www.w3.org/2000/svg" xmlns:xlink="http://www.w3.org/1999/xlink" width="19.982" height="17.611" viewBox="0 0 19.982 17.611">
  <defs>
    <clipPath id="clip-path">
      <path id="Path_434" data-name="Path 434" d="M1270.6,695.116a.8.8,0,1,0,.8.8.788.788,0,0,0-.232-.566.8.8,0,0,0-.571-.237" transform="translate(-1269.792 -695.116)" fill="none" clip-rule="evenodd"/>
    </clipPath>
    <clipPath id="clip-path-2">
      <rect id="Rectangle_190" data-name="Rectangle 190" width="1.608" height="5.628" fill="none"/>
    </clipPath>
    <clipPath id="clip-path-3">
      <path id="Path_435" data-name="Path 435" d="M1280.827,698.773l-9.217-16.056a.766.766,0,0,0-.669-.389.781.781,0,0,0-.671.389l-9.217,16.055a.778.778,0,0,0,.668,1.167h18.437a.764.764,0,0,0,.669-.389A.786.786,0,0,0,1280.827,698.773Zm-2.008-.389h-15.76l7.882-13.728Z" transform="translate(-1260.948 -682.328)" fill="none" clip-rule="evenodd"/>
    </clipPath>
  </defs>
  <g id="Group_351" data-name="Group 351" transform="translate(8.844 12.788)">
    <g id="Group_350" data-name="Group 350" clip-path="url(#clip-path)">
      <rect id="Rectangle_188" data-name="Rectangle 188" width="11.608" height="11.608" transform="translate(-5 -5)" fill="#e21313"/>
    </g>
  </g>
  <g id="Group_353" data-name="Group 353" transform="translate(8.844 6.356)">
    <g id="Group_352" data-name="Group 352" clip-path="url(#clip-path-2)">
      <rect id="Rectangle_189" data-name="Rectangle 189" width="11.608" height="15.628" transform="translate(-5 -5)" fill="#e21313"/>
    </g>
  </g>
  <g id="Group_355" data-name="Group 355">
    <g id="Group_354" data-name="Group 354" clip-path="url(#clip-path-3)">
      <rect id="Rectangle_191" data-name="Rectangle 191" width="29.982" height="27.611" transform="translate(-5 -5)" fill="#e21313"/>
    </g>
  </g>
</svg>
