<svg xmlns="http://www.w3.org/2000/svg" width="24.747" height="24.747" viewBox="0 0 24.747 24.747">
  <g id="Scheduled" transform="translate(0 -0.378)">
    <g id="scheduled-icon-grey" transform="translate(0 0.378)">
      <path id="icon" d="M7.4,5.77V4.437H17.35V5.771h2.057V4.437h1.642a1.643,1.643,0,0,1,1.64,1.641V8.441H2.057V6.078A1.644,1.644,0,0,1,3.7,4.435H5.34V5.77ZM22.689,10.5V21.426a1.643,1.643,0,0,1-1.64,1.641H3.7a1.643,1.643,0,0,1-1.642-1.641V10.5ZM21.049,2.38H19.407v-2H17.35v2H7.4v-2H5.339v2H3.7A3.7,3.7,0,0,0,0,6.078v15.35a3.7,3.7,0,0,0,3.7,3.7h17.35a3.7,3.7,0,0,0,3.7-3.7V6.076A3.7,3.7,0,0,0,21.049,2.38Z" transform="translate(0 -0.378)" fill="#404149" fill-rule="evenodd"/>
    </g>
  </g>
</svg>
