<svg xmlns="http://www.w3.org/2000/svg" width="26.598" height="26.559" viewBox="0 0 26.598 26.559">
  <g id="services" transform="translate(-1115.282 -817.176)">
    <path id="Path_403" data-name="Path 403" d="M1135.165,817.177a6.606,6.606,0,0,0-4.541,1.924v0a6.6,6.6,0,0,0-1.7,6.357l-2.1,2.1-3.139-3.142,1.591-1.59a.831.831,0,0,0,0-1.173.86.86,0,0,0-.139-.113l-6.562-4.218a.832.832,0,0,0-1.034.117l-2.015,2.013a.83.83,0,0,0-.111,1.036l4.213,6.557a.831.831,0,0,0,1.146.252.86.86,0,0,0,.138-.112l1.6-1.595,3.14,3.14-2.033,2.035a6.6,6.6,0,0,0-6.357,1.7l0,0a6.6,6.6,0,0,0-1.284,7.5.828.828,0,0,0,1.105.392.807.807,0,0,0,.23-.162l2.66-2.663,1.553,1.551-2.661,2.663a.83.83,0,0,0,.23,1.335,6.6,6.6,0,0,0,7.5-1.284h0a6.594,6.594,0,0,0,1.744-6.146l6.975,6.965a3.82,3.82,0,0,0,5.4-5.4l-7.079-7.076a6.6,6.6,0,0,0,6.327-1.707h0a6.6,6.6,0,0,0,1.284-7.5.829.829,0,0,0-1.106-.392.864.864,0,0,0-.229.162l-2.663,2.663-1.551-1.553,2.661-2.661a.831.831,0,0,0,0-1.173.862.862,0,0,0-.229-.162A6.578,6.578,0,0,0,1135.165,817.177Zm.027,1.656a4.885,4.885,0,0,1,1.038.095l-2.3,2.3a.83.83,0,0,0,0,1.174h0l2.723,2.724a.829.829,0,0,0,1.173,0l2.3-2.3a4.924,4.924,0,0,1-6.486,5.59.829.829,0,0,0-.865.2l-.774.774a.848.848,0,0,0-.175.134l-4.229,4.229a.871.871,0,0,0-.13.172l-.7.7a.832.832,0,0,0-.2.865,4.923,4.923,0,0,1-5.589,6.486l2.3-2.3a.827.827,0,0,0,0-1.172l-2.726-2.725a.83.83,0,0,0-1.172,0l-2.3,2.3a4.925,4.925,0,0,1,6.49-5.591.828.828,0,0,0,.863-.2l6.011-6.012a.827.827,0,0,0,.2-.863,4.93,4.93,0,0,1,4.553-6.585Zm-16.949.25,5.13,3.3-2.909,2.9-3.293-5.13Zm14.192,12.214,7.1,7.092a2.162,2.162,0,0,1-3.06,3.055l-7.1-7.089Z" fill="#fff"/>
  </g>
</svg>
