<svg id="sort-arrows-on" xmlns="http://www.w3.org/2000/svg" xmlns:xlink="http://www.w3.org/1999/xlink" width="9.38" height="23.316" viewBox="0 0 9.38 23.316">
  <defs>
    <clipPath id="clip-path">
      <path id="Path_383" data-name="Path 383" d="M980.688,906.539l4.39,7.6c.133.232.023.422-.243.422h-8.779c-.268,0-.378-.19-.243-.422l4.389-7.6a.257.257,0,0,1,.487,0" transform="translate(-975.755 -906.366)" fill="#fff" clip-rule="evenodd"/>
    </clipPath>
    <clipPath id="clip-path-2">
      <path id="Path_383-2" data-name="Path 383" d="M4.933.173l4.39,7.6c.133.232.023.422-.243.422H.3c-.268,0-.378-.19-.243-.422L4.446.173a.257.257,0,0,1,.487,0" fill="none" clip-rule="evenodd"/>
    </clipPath>
  </defs>
  <g id="Group_214" data-name="Group 214" transform="translate(0.001 0)">
    <g id="Group_213" data-name="Group 213" clip-path="url(#clip-path)">
      <rect id="Rectangle_109" data-name="Rectangle 109" width="23.124" height="21.942" transform="translate(-6.872 -6.873)" fill="#fff"/>
    </g>
  </g>
  <g id="Group_215" data-name="Group 215" transform="translate(9.38 23.316) rotate(180)" opacity="0.326">
    <g id="Group_213-2" data-name="Group 213" clip-path="url(#clip-path-2)">
      <rect id="Rectangle_109-2" data-name="Rectangle 109" width="23.124" height="21.942" transform="translate(-6.872 -6.873)" fill="#fff"/>
    </g>
  </g>
</svg>
