<svg xmlns="http://www.w3.org/2000/svg" width="25.853" height="25.853" viewBox="0 0 25.853 25.853">
  <g id="stopped" transform="translate(-619.855 -1099.308)">
    <g id="checked-out-icon-green" transform="translate(619.855 1099.308)">
      <g id="checked-out">
        <path id="Fill-1" d="M632.782,1125.161a12.927,12.927,0,1,1,12.927-12.927,12.941,12.941,0,0,1-12.927,12.927" transform="translate(-619.855 -1099.308)" fill="#e21313" fill-rule="evenodd"/>
      </g>
    </g>
    <path id="Path_496" data-name="Path 496" d="M632.3,1110.276l3.909-3.909a1.043,1.043,0,0,0,0-1.475,1.068,1.068,0,0,0-1.477,0l-3.908,3.908-3.909-3.908a1.043,1.043,0,0,0-1.781.738,1.032,1.032,0,0,0,.306.738l3.908,3.909-3.909,3.908a1.046,1.046,0,0,0-.3.739,1.043,1.043,0,0,0,1.781.738l3.909-3.909,3.907,3.908a1.044,1.044,0,1,0,1.478-1.475Z" transform="translate(1.959 1.959)" fill="#fff"/>
  </g>
</svg>
