<svg id="tools" xmlns="http://www.w3.org/2000/svg" xmlns:xlink="http://www.w3.org/1999/xlink" width="21.062" height="21.07" viewBox="0 0 21.062 21.07">
  <defs>
    <clipPath id="clip-path">
      <rect id="Rectangle_186" data-name="Rectangle 186" width="21.062" height="21.07" fill="none"/>
    </clipPath>
    <clipPath id="clip-path-2">
      <rect id="Rectangle_185" data-name="Rectangle 185" width="22" height="23" fill="none"/>
    </clipPath>
    <clipPath id="clip-path-3">
      <path id="Path_432" data-name="Path 432" d="M1202.526,680.611a5.654,5.654,0,0,0-5.846,7.143l-9.023,9.031a2.863,2.863,0,0,0,4.049,4.049l9.031-9.03a5.657,5.657,0,0,0,6.815-7.4.716.716,0,0,0-1.178-.268l-2.013,2.013a1.432,1.432,0,0,1-2.029-2.021l2.014-2.013a.717.717,0,0,0-.269-1.186,5.72,5.72,0,0,0-1.551-.32m-.134,1.431-1.074,1.074a2.863,2.863,0,0,0,4.049,4.049l1.074-1.066a4.273,4.273,0,0,1-5.712,4.265.718.718,0,0,0-.746.165l-9.291,9.291a1.434,1.434,0,0,1-2.028-2.028l9.291-9.284a.718.718,0,0,0,.172-.746,4.277,4.277,0,0,1,4.265-5.72" transform="translate(-1186.822 -680.599)" fill="none" clip-rule="evenodd"/>
    </clipPath>
    <clipPath id="clip-path-4">
      <rect id="Rectangle_184" data-name="Rectangle 184" width="22" height="22" fill="none"/>
    </clipPath>
  </defs>
  <g id="Group_346" data-name="Group 346" clip-path="url(#clip-path)">
    <g id="Group_345" data-name="Group 345" transform="translate(-0.499 -1)" style="isolation: isolate">
      <g id="Group_344" data-name="Group 344">
        <g id="Group_343" data-name="Group 343" clip-path="url(#clip-path-2)">
          <g id="Group_342" data-name="Group 342" transform="translate(0.499 1)">
            <g id="Group_341" data-name="Group 341" clip-path="url(#clip-path-3)">
              <g id="Group_340" data-name="Group 340" transform="translate(-0.499 0)">
                <g id="Group_339" data-name="Group 339" clip-path="url(#clip-path-4)">
                  <rect id="Rectangle_183" data-name="Rectangle 183" width="31.062" height="31.07" transform="translate(-4.501 -5)" fill="#404149"/>
                </g>
              </g>
            </g>
          </g>
        </g>
      </g>
    </g>
  </g>
</svg>
