<svg xmlns="http://www.w3.org/2000/svg" width="26.975" height="27.234" viewBox="0 0 26.975 27.234">
  <g id="users" transform="translate(-1158.491 -838.856)">
    <path id="Path_445" data-name="Path 445" d="M1183.536,855.23a6.645,6.645,0,0,0-4.721-1.984h-1.969a.99.99,0,0,0-.637.241l-.374.3a6.07,6.07,0,0,1-7.789,0l-.364-.294a1,1,0,0,0-.649-.248h-1.859a6.691,6.691,0,0,0-6.683,6.683V865.1a1,1,0,0,0,.994.994h24.988a.994.994,0,0,0,.993-.994v-5.129A6.637,6.637,0,0,0,1183.536,855.23Zm-.056,4.735V864.1h-23v-4.138a4.7,4.7,0,0,1,4.663-4.731h1.627l.072.054a8.051,8.051,0,0,0,10.31.007l.082-.061h1.587a4.693,4.693,0,0,1,4.66,4.732Z"/>
    <path id="Path_446" data-name="Path 446" d="M1171.941,852.742h.038a6.924,6.924,0,1,0-.038,0Zm-4.919-6.98a4.957,4.957,0,1,1,4.957,4.956A4.962,4.962,0,0,1,1167.022,845.762Z"/>
  </g>
</svg>
