<svg id="history-edit" xmlns="http://www.w3.org/2000/svg" width="34" height="34" viewBox="0 0 34 34">
  <circle id="Ellipse_13" data-name="Ellipse 13" cx="17" cy="17" r="17" fill="#ee8737"/>
  <g id="Group_473" data-name="Group 473" transform="translate(9.471 8.224)">
    <path id="Rectangle_303" data-name="Rectangle 303" d="M0,0H11.679a2.664,2.664,0,0,1,2.664,2.664v0a2.664,2.664,0,0,1-2.664,2.664H0a0,0,0,0,1,0,0V0A0,0,0,0,1,0,0Z" transform="translate(2.941 10.142) rotate(-45)" fill="#fff"/>
    <path id="Path_522" data-name="Path 522" d="M479.649,1010.071h0a4.339,4.339,0,0,0-1.209,2.337l-.441,2.573a.44.44,0,0,0,.508.508l2.573-.44a4.344,4.344,0,0,0,2.337-1.21h0Z" transform="translate(-477.992 -998.644)" fill="#fff"/>
  </g>
</svg>
